<?xml version="1.0" encoding="UTF-8"?>
<svg xmlns="http://www.w3.org/2000/svg" version="1.1" viewBox="0 0 500 500">
  <defs>
    <style>
      .cls-1, .cls-2, .cls-3, .cls-4, .cls-5, .cls-6 {
        stroke: #263238;
      }

      .cls-1, .cls-2, .cls-3, .cls-4, .cls-5, .cls-6, .cls-7 {
        stroke-linecap: round;
        stroke-linejoin: round;
        stroke-width: 2.5px;
      }

      .cls-1, .cls-8 {
        fill: #263238;
      }

      .cls-9, .cls-3 {
        fill: #ec644e;
      }

      .cls-10, .cls-5 {
        fill: #9abae3;
      }

      .cls-2, .cls-7 {
        fill: none;
      }

      .cls-11, .cls-6 {
        fill: #fff;
      }

      .cls-12, .cls-4 {
        fill: #fcd8c3;
      }

      .cls-7 {
        stroke: #9abae3;
      }
    </style>
  </defs>
  <!-- Generator: Adobe Illustrator 28.6.0, SVG Export Plug-In . SVG Version: 1.2.0 Build 709)  -->
  <g>
    <g id="Floor">
      <line class="cls-2" x1="18.66" y1="409.98" x2="475.33" y2="409.98"/>
    </g>
    <g id="Device">
      <g>
        <g>
          <path class="cls-10" d="M67.03,350.08h388.91c10.14,0,18.33-8.27,18.23-18.41l-2.44-252.63c-.1-10-8.23-18.06-18.23-18.06H64.59c-10.14,0-18.33,8.27-18.23,18.41l2.44,252.63c.1,10,8.23,18.06,18.23,18.06Z"/>
          <path class="cls-11" d="M471.73,79.03c-.1-10-8.23-18.06-18.23-18.06H64.59c-6.06,0-11.41,2.97-14.73,7.52,2.87-1.89,6.3-3,10-3h389.92c10,0,17.12,7.04,17.22,17.04l2.44,253.65c.04,4.08-1.28,7.84-3.5,10.89,5.01-3.29,8.3-8.97,8.24-15.41l-2.44-252.63Z"/>
          <path class="cls-2" d="M67.29,350.42l388.91-.7c10.14-.02,18.32-8.3,18.2-18.44l-2.89-252.63c-.11-10-8.26-18.04-18.27-18.03l-388.91.7c-10.14.02-18.32,8.3-18.2,18.44l2.89,252.63c.11,10,8.26,18.04,18.27,18.03Z"/>
          <rect class="cls-11" x="61.53" y="76.77" width="397.48" height="257.52"/>
          <g>
            <path class="cls-7" d="M141.77,99.67v-22.49h-14.8c-.03-.14-.06-.27-.09-.42h-30.79c1.98,3.44,3.1,7.41,3.1,11.66,0,12.97-10.51,23.48-23.48,23.48-5.33,0-10.24-1.77-14.18-4.77v31.82c.96.27,1.95.52,2.93.73v14.8h22.49v-14.8c6.17-1.34,11.91-3.77,17.04-7.07l10.47,10.47,15.91-15.91-10.47-10.46c3.3-5.14,5.73-10.89,7.07-17.05h14.8Z"/>
            <path class="cls-7" d="M77.91,190.3c.62,2.85,1.75,5.51,3.27,7.89l-4.85,4.85,7.37,7.37,4.85-4.85c2.38,1.53,5.04,2.65,7.89,3.27v6.85h10.42v-6.85c2.85-.62,5.51-1.75,7.89-3.27l4.85,4.85,7.37-7.37-4.85-4.85c1.53-2.38,2.65-5.04,3.27-7.89h6.85v-10.42h-6.85c-.62-2.85-1.75-5.51-3.27-7.89l4.85-4.85-7.37-7.37-4.85,4.85c-2.38-1.53-5.04-2.65-7.89-3.27v-6.85h-10.42v6.85c-2.85.62-5.51,1.75-7.89,3.27l-4.85-4.85-7.37,7.37,4.85,4.85c-1.53,2.38-2.65,5.04-3.27,7.89h-6.85v10.42h6.85ZM90.78,185.09c0-6,4.87-10.87,10.87-10.87s10.87,4.87,10.87,10.87-4.87,10.87-10.87,10.87-10.87-4.87-10.87-10.87Z"/>
          </g>
          <g>
            <path class="cls-7" d="M458.69,277.05c-5.14-3.3-10.89-5.72-17.04-7.07v-14.79h-22.5v14.79c-6.15,1.35-11.9,3.77-17.04,7.07l-10.46-10.46-15.91,15.91,10.47,10.46c-3.31,5.14-5.73,10.89-7.08,17.04h-14.79v22.5h14.79c.13.6.27,1.2.43,1.78h31.31c-2.49-3.73-3.94-8.22-3.94-13.04,0-12.96,10.51-23.47,23.48-23.47s23.47,10.51,23.47,23.47c0,4.82-1.45,9.31-3.94,13.04h9.07v-57.55l-.31.31Z"/>
            <path class="cls-7" d="M388.78,234.46c.49,2.26,1.39,4.37,2.6,6.26l-3.85,3.85,5.84,5.84,3.85-3.85c1.89,1.21,4,2.1,6.26,2.6v5.44h8.26v-5.44c2.26-.49,4.37-1.39,6.26-2.6l3.85,3.85,5.84-5.84-3.85-3.85c1.21-1.89,2.1-4,2.6-6.26h5.44v-8.26h-5.44c-.49-2.26-1.39-4.37-2.6-6.26l3.85-3.85-5.84-5.84-3.85,3.85c-1.89-1.21-4-2.1-6.26-2.6v-5.44h-8.26v5.44c-2.26.49-4.37,1.39-6.26,2.6l-3.85-3.85-5.84,5.84,3.85,3.85c-1.21,1.89-2.1,4-2.6,6.26h-5.44v8.26h5.44ZM398.99,230.32c0-4.76,3.86-8.63,8.63-8.63s8.63,3.86,8.63,8.63-3.86,8.63-8.63,8.63-8.63-3.86-8.63-8.63Z"/>
          </g>
          <rect class="cls-2" x="61.53" y="76.77" width="397.48" height="257.52"/>
        </g>
        <rect class="cls-5" x="231.08" y="350.39" width="58.37" height="45.2"/>
        <path class="cls-5" d="M337.39,409.98h-151.82c0-9.25,7.5-16.76,16.76-16.76h118.31c9.25,0,16.76,7.5,16.76,16.76h0Z"/>
        <rect class="cls-1" x="231.08" y="350.39" width="58.37" height="12.76"/>
      </g>
    </g>
    <g id="Error_404">
      <g>
        <g id="_x34_04">
          <polygon class="cls-9" points="202.7 194.96 184.1 194.96 184.1 210.8 161.33 210.8 198.45 159.89 177.78 159.89 137.66 213.58 137.66 226.76 183.49 226.76 183.49 244.53 202.7 244.53 202.7 226.76 216.56 226.76 216.56 210.8 202.7 210.8 202.7 194.96"/>
          <g>
            <rect class="cls-11" x="199.21" y="194.96" width="3.49" height="15.84"/>
            <polygon class="cls-11" points="161.33 210.8 198.45 159.89 194.95 159.89 157.84 210.8 161.33 210.8"/>
            <rect class="cls-11" x="199.21" y="226.76" width="3.49" height="17.78"/>
            <rect class="cls-11" x="213.07" y="210.8" width="3.49" height="15.96"/>
          </g>
          <polygon class="cls-2" points="202.7 194.96 184.1 194.96 184.1 210.8 161.33 210.8 198.45 159.89 177.78 159.89 137.66 213.58 137.66 226.76 183.49 226.76 183.49 244.53 202.7 244.53 202.7 226.76 216.56 226.76 216.56 210.8 202.7 210.8 202.7 194.96"/>
          <path class="cls-9" d="M277.65,161.51c-5.47-3.43-11.73-5.14-18.78-5.14s-13.19,1.71-18.66,5.14c-5.47,3.43-9.81,8.39-13.01,14.87-3.2,6.49-4.8,14.41-4.8,23.76s1.6,17.27,4.8,23.76c3.2,6.49,7.54,11.45,13.01,14.87,5.47,3.43,11.69,5.14,18.66,5.14s13.31-1.71,18.78-5.14c5.47-3.43,9.8-8.38,13.01-14.87,3.2-6.49,4.8-14.41,4.8-23.76s-1.6-17.27-4.8-23.76c-3.2-6.49-7.54-11.45-13.01-14.87ZM273.39,215.74c-1.42,4.03-3.36,6.99-5.83,8.89-2.47,1.89-5.37,2.84-8.69,2.84s-6-.95-8.51-2.84c-2.51-1.89-4.5-4.86-5.96-8.89-1.46-4.03-2.19-9.23-2.19-15.6s.73-11.57,2.19-15.6c1.46-4.03,3.44-6.99,5.96-8.89,2.51-1.89,5.35-2.84,8.51-2.84,3.32,0,6.22.95,8.69,2.84,2.47,1.89,4.42,4.86,5.83,8.89,1.42,4.03,2.13,9.23,2.13,15.6s-.71,11.57-2.13,15.6Z"/>
          <g>
            <path class="cls-11" d="M250.36,175.66c1.97-1.48,4.14-2.38,6.5-2.7-.68-.09-1.38-.14-2.1-.14-3.16,0-6,.95-8.51,2.84-2.51,1.89-4.5,4.86-5.96,8.89-1.46,4.03-2.19,9.23-2.19,15.6s.73,11.57,2.19,15.6c1.46,4.03,3.44,6.99,5.96,8.89,2.51,1.89,5.35,2.84,8.51,2.84.72,0,1.42-.05,2.1-.14-2.37-.32-4.54-1.22-6.5-2.7-2.51-1.89-4.5-4.86-5.96-8.89-1.46-4.03-2.19-9.23-2.19-15.6s.73-11.57,2.19-15.6c1.46-4.03,3.44-6.99,5.96-8.89Z"/>
            <path class="cls-11" d="M290.66,176.39c-3.2-6.49-7.54-11.45-13.01-14.87-5.47-3.43-11.73-5.14-18.78-5.14-.69,0-1.37.02-2.04.05,6.21.3,11.79,2,16.72,5.08,5.47,3.43,9.8,8.39,13.01,14.87,3.2,6.49,4.8,14.41,4.8,23.76s-1.6,17.27-4.8,23.76c-3.2,6.49-7.54,11.45-13.01,14.87-4.93,3.09-10.51,4.78-16.72,5.08.67.03,1.35.05,2.04.05,7.05,0,13.31-1.71,18.78-5.14,5.47-3.43,9.8-8.38,13.01-14.87,3.2-6.49,4.8-14.41,4.8-23.76s-1.6-17.27-4.8-23.76Z"/>
          </g>
          <path class="cls-2" d="M277.65,161.51c-5.47-3.43-11.73-5.14-18.78-5.14s-13.19,1.71-18.66,5.14c-5.47,3.43-9.81,8.39-13.01,14.87-3.2,6.49-4.8,14.41-4.8,23.76s1.6,17.27,4.8,23.76c3.2,6.49,7.54,11.45,13.01,14.87,5.47,3.43,11.69,5.14,18.66,5.14s13.31-1.71,18.78-5.14c5.47-3.43,9.8-8.38,13.01-14.87,3.2-6.49,4.8-14.41,4.8-23.76s-1.6-17.27-4.8-23.76c-3.2-6.49-7.54-11.45-13.01-14.87ZM273.39,215.74c-1.42,4.03-3.36,6.99-5.83,8.89-2.47,1.89-5.37,2.84-8.69,2.84s-6-.95-8.51-2.84c-2.51-1.89-4.5-4.86-5.96-8.89-1.46-4.03-2.19-9.23-2.19-15.6s.73-11.57,2.19-15.6c1.46-4.03,3.44-6.99,5.96-8.89,2.51-1.89,5.35-2.84,8.51-2.84,3.32,0,6.22.95,8.69,2.84,2.47,1.89,4.42,4.86,5.83,8.89,1.42,4.03,2.13,9.23,2.13,15.6s-.71,11.57-2.13,15.6Z"/>
          <polygon class="cls-9" points="382.86 210.8 369.01 210.8 369.01 194.96 350.41 194.96 350.41 210.8 327.63 210.8 364.75 159.89 344.08 159.89 303.97 213.58 303.97 226.76 349.8 226.76 349.8 244.53 369.01 244.53 369.01 226.76 382.86 226.76 382.86 210.8"/>
          <polygon class="cls-9" points="382.86 210.8 369.01 210.8 369.01 194.96 350.41 194.96 350.41 210.8 327.63 210.8 364.75 159.89 344.08 159.89 303.97 213.58 303.97 226.76 349.8 226.76 349.8 244.53 369.01 244.53 369.01 226.76 382.86 226.76 382.86 210.8"/>
          <g>
            <rect class="cls-11" x="364.97" y="194.96" width="4.03" height="15.84"/>
            <polygon class="cls-11" points="327.63 210.8 364.75 159.89 360.72 159.89 323.6 210.8 327.63 210.8"/>
            <rect class="cls-11" x="364.97" y="226.76" width="4.03" height="17.78"/>
            <rect class="cls-11" x="378.83" y="210.8" width="4.03" height="15.96"/>
          </g>
          <polygon class="cls-2" points="382.86 210.8 369.01 210.8 369.01 194.96 350.41 194.96 350.41 210.8 327.63 210.8 364.75 159.89 344.08 159.89 303.97 213.58 303.97 226.76 349.8 226.76 349.8 244.53 369.01 244.53 369.01 226.76 382.86 226.76 382.86 210.8"/>
        </g>
        <g>
          <path class="cls-8" d="M188.95,139.49v-10.52h4.56c.94,0,1.75.15,2.44.46.68.31,1.21.74,1.58,1.32.37.57.56,1.25.56,2.04s-.19,1.46-.56,2.03c-.37.57-.9,1.01-1.58,1.32-.68.31-1.49.46-2.44.46h-3.2l1.08-1.1v4h-2.44ZM191.38,135.76l-1.08-1.16h3.07c.75,0,1.31-.16,1.68-.48.37-.32.56-.77.56-1.34s-.19-1.03-.56-1.35c-.37-.32-.93-.48-1.68-.48h-3.07l1.08-1.16v5.97Z"/>
          <path class="cls-8" d="M197.89,139.49l4.69-10.52h2.41l4.71,10.52h-2.56l-3.85-9.29h.96l-3.86,9.29h-2.5ZM200.24,137.23l.65-1.85h5.41l.66,1.85h-6.72Z"/>
          <path class="cls-8" d="M215.72,139.67c-.83,0-1.6-.13-2.29-.4-.7-.27-1.3-.64-1.82-1.14-.52-.49-.92-1.07-1.2-1.73-.29-.66-.43-1.39-.43-2.18s.14-1.52.43-2.18c.29-.66.69-1.24,1.21-1.73.52-.49,1.13-.87,1.83-1.14.7-.27,1.47-.4,2.32-.4.93,0,1.77.16,2.52.47.75.31,1.38.76,1.89,1.35l-1.56,1.44c-.38-.4-.8-.7-1.25-.89-.45-.2-.94-.29-1.47-.29s-.98.08-1.4.24c-.42.16-.78.39-1.09.69-.31.3-.54.66-.71,1.07-.17.41-.25.87-.25,1.37s.08.94.25,1.35c.17.41.4.77.71,1.07.31.31.67.54,1.08.7.42.16.87.24,1.38.24s.95-.08,1.41-.23c.46-.16.9-.42,1.33-.79l1.38,1.76c-.57.43-1.23.76-1.99.99-.76.23-1.51.35-2.26.35ZM217.75,138.01v-3.95h2.23v4.27l-2.23-.32Z"/>
          <path class="cls-8" d="M224.65,137.53h5.73v1.95h-8.15v-10.52h7.95v1.95h-5.53v6.61ZM224.47,133.2h5.07v1.89h-5.07v-1.89Z"/>
          <path class="cls-8" d="M236.58,139.49v-10.52h2.01l6.21,7.58h-.98v-7.58h2.41v10.52h-2l-6.22-7.58h.98v7.58h-2.41Z"/>
          <path class="cls-8" d="M253.84,139.67c-.83,0-1.6-.14-2.31-.41-.71-.27-1.32-.65-1.83-1.14-.52-.49-.92-1.07-1.2-1.73-.29-.66-.43-1.38-.43-2.16s.14-1.5.43-2.16c.29-.66.69-1.24,1.21-1.73.52-.49,1.13-.87,1.83-1.14.7-.27,1.46-.41,2.28-.41s1.6.14,2.29.41c.7.27,1.3.65,1.82,1.14.52.49.92,1.07,1.21,1.72.29.66.44,1.38.44,2.17s-.15,1.51-.44,2.17c-.29.67-.69,1.24-1.21,1.73-.52.49-1.12.86-1.82,1.13-.7.27-1.46.41-2.28.41ZM253.82,137.59c.47,0,.9-.08,1.3-.24.4-.16.74-.39,1.04-.69.3-.3.53-.66.7-1.07.17-.41.25-.87.25-1.37s-.08-.96-.25-1.37c-.17-.41-.4-.77-.69-1.07-.3-.3-.64-.53-1.05-.69-.4-.16-.84-.24-1.31-.24s-.9.08-1.3.24c-.4.16-.74.39-1.04.69-.3.3-.53.66-.7,1.07-.17.41-.25.87-.25,1.37s.08.95.25,1.36c.17.42.4.77.69,1.07.3.3.64.53,1.05.69.4.16.84.24,1.31.24Z"/>
          <path class="cls-8" d="M263.44,139.49v-8.54h-3.37v-1.98h9.17v1.98h-3.37v8.54h-2.44Z"/>
          <path class="cls-8" d="M277.25,139.49h-2.44v-10.52h7.95v1.95h-5.52v8.57ZM277.07,133.7h5.05v1.95h-5.05v-1.95Z"/>
          <path class="cls-8" d="M289.42,139.67c-.83,0-1.6-.14-2.31-.41-.71-.27-1.32-.65-1.83-1.14-.52-.49-.92-1.07-1.2-1.73-.29-.66-.43-1.38-.43-2.16s.14-1.5.43-2.16c.29-.66.69-1.24,1.21-1.73.52-.49,1.13-.87,1.83-1.14.7-.27,1.46-.41,2.28-.41s1.6.14,2.29.41c.7.27,1.3.65,1.82,1.14.52.49.92,1.07,1.21,1.72.29.66.44,1.38.44,2.17s-.15,1.51-.44,2.17c-.29.67-.69,1.24-1.21,1.73-.52.49-1.12.86-1.82,1.13-.7.27-1.46.41-2.28.41ZM289.41,137.59c.47,0,.91-.08,1.3-.24.4-.16.74-.39,1.04-.69.3-.3.53-.66.7-1.07.17-.41.25-.87.25-1.37s-.08-.96-.25-1.37c-.17-.41-.4-.77-.69-1.07-.3-.3-.64-.53-1.05-.69-.4-.16-.84-.24-1.31-.24s-.9.08-1.3.24c-.4.16-.74.39-1.04.69-.3.3-.53.66-.7,1.07-.17.41-.25.87-.25,1.37s.08.95.25,1.36c.17.42.4.77.69,1.07.3.3.64.53,1.05.69.4.16.84.24,1.31.24Z"/>
          <path class="cls-8" d="M301.68,139.67c-1.49,0-2.66-.42-3.5-1.25-.84-.83-1.26-2.02-1.26-3.56v-5.89h2.44v5.8c0,1,.2,1.72.62,2.17.41.44.99.66,1.73.66s1.32-.22,1.73-.66c.41-.44.62-1.16.62-2.17v-5.8h2.41v5.89c0,1.54-.42,2.73-1.26,3.56-.84.83-2.01,1.25-3.5,1.25Z"/>
          <path class="cls-8" d="M308.85,139.49v-10.52h2.02l6.21,7.58h-.98v-7.58h2.41v10.52h-2l-6.22-7.58h.98v7.58h-2.41Z"/>
          <path class="cls-8" d="M321,139.49v-10.52h4.78c1.14,0,2.15.22,3.02.65.87.44,1.55,1.04,2.04,1.83.49.78.74,1.71.74,2.78s-.25,1.99-.74,2.77c-.49.79-1.17,1.4-2.04,1.83-.87.44-1.88.65-3.02.65h-4.78ZM323.43,137.49h2.23c.7,0,1.31-.13,1.83-.4.52-.27.92-.64,1.2-1.13.29-.49.43-1.07.43-1.73s-.14-1.25-.43-1.74c-.29-.49-.69-.86-1.2-1.13-.52-.27-1.12-.4-1.83-.4h-2.23v6.52Z"/>
        </g>
        <g>
          <rect class="cls-1" x="211.5" y="259.94" width="97.52" height="33.46"/>
          <g>
            <path class="cls-11" d="M222.87,281.44h8.68v2.96h-12.34v-15.94h12.04v2.96h-8.38v10.02ZM222.59,274.88h7.67v2.87h-7.67v-2.87Z"/>
            <path class="cls-11" d="M234.48,284.4v-15.94h6.9c1.43,0,2.66.23,3.69.7,1.03.46,1.83,1.13,2.39,1.99.56.86.84,1.9.84,3.1s-.28,2.21-.84,3.06c-.56.86-1.36,1.51-2.39,1.97-1.03.46-2.26.68-3.69.68h-4.85l1.64-1.62v6.06h-3.69ZM238.17,278.76l-1.64-1.73h4.65c1.14,0,1.99-.25,2.55-.74.56-.49.84-1.17.84-2.04s-.28-1.56-.84-2.05c-.56-.49-1.41-.73-2.55-.73h-4.65l1.64-1.75v9.04ZM244.61,284.4l-3.99-5.78h3.94l4.03,5.78h-3.98Z"/>
            <path class="cls-11" d="M251.22,284.4v-15.94h6.9c1.43,0,2.66.23,3.69.7,1.03.46,1.83,1.13,2.39,1.99.56.86.84,1.9.84,3.1s-.28,2.21-.84,3.06c-.56.86-1.36,1.51-2.39,1.97-1.03.46-2.26.68-3.69.68h-4.85l1.64-1.62v6.06h-3.69ZM254.9,278.76l-1.64-1.73h4.65c1.14,0,1.99-.25,2.55-.74.56-.49.84-1.17.84-2.04s-.28-1.56-.84-2.05c-.56-.49-1.41-.73-2.55-.73h-4.65l1.64-1.75v9.04ZM261.35,284.4l-3.99-5.78h3.94l4.03,5.78h-3.98Z"/>
            <path class="cls-11" d="M275.69,284.68c-1.26,0-2.42-.2-3.5-.61-1.07-.41-2-.99-2.78-1.73-.78-.74-1.39-1.62-1.82-2.62-.43-1-.65-2.1-.65-3.28s.22-2.28.65-3.28,1.04-1.87,1.83-2.62c.79-.74,1.72-1.32,2.78-1.73,1.06-.41,2.22-.61,3.46-.61s2.42.2,3.47.61c1.05.41,1.97.99,2.75,1.73.78.74,1.39,1.61,1.83,2.61.44.99.66,2.09.66,3.29s-.22,2.28-.66,3.29c-.44,1.01-1.05,1.88-1.83,2.62-.78.74-1.7,1.31-2.75,1.72-1.06.41-2.21.61-3.45.61ZM275.67,281.53c.71,0,1.37-.12,1.97-.36.6-.24,1.13-.59,1.58-1.05s.81-.99,1.06-1.62c.25-.62.38-1.31.38-2.07s-.12-1.45-.38-2.07c-.25-.62-.6-1.16-1.05-1.62s-.98-.8-1.58-1.05c-.61-.24-1.27-.36-1.98-.36s-1.37.12-1.97.36c-.6.24-1.13.59-1.58,1.05s-.81,1-1.06,1.62c-.25.62-.38,1.31-.38,2.07s.13,1.43.38,2.06c.25.63.6,1.17,1.05,1.63s.98.8,1.58,1.05,1.27.36,1.98.36Z"/>
            <path class="cls-11" d="M287.17,284.4v-15.94h6.9c1.43,0,2.66.23,3.69.7,1.03.46,1.83,1.13,2.39,1.99.56.86.84,1.9.84,3.1s-.28,2.21-.84,3.06c-.56.86-1.36,1.51-2.39,1.97-1.03.46-2.26.68-3.69.68h-4.85l1.64-1.62v6.06h-3.69ZM290.86,278.76l-1.64-1.73h4.65c1.14,0,1.99-.25,2.55-.74.56-.49.84-1.17.84-2.04s-.28-1.56-.84-2.05c-.56-.49-1.41-.73-2.55-.73h-4.65l1.64-1.75v9.04ZM297.3,284.4l-3.99-5.78h3.94l4.03,5.78h-3.98Z"/>
          </g>
        </g>
      </g>
    </g>
    <g id="Cone">
      <g>
        <path class="cls-9" d="M405.65,347.4l61.24,57.8c1.54,1.45.51,3.87-1.61,3.77l-84.11-4.17,24.48-57.4Z"/>
        <path class="cls-11" d="M463.35,408.87l-59.83-56.48,2.13-4.99,61.23,57.81c1.54,1.45.51,3.87-1.61,3.77l-1.92-.1Z"/>
        <path class="cls-2" d="M405.65,347.4l61.24,57.8c1.54,1.45.51,3.87-1.61,3.77l-84.11-4.17,24.48-57.4Z"/>
        <polygon class="cls-3" points="423.79 406.91 436.68 376.69 445.79 385.3 436.31 407.53 423.79 406.91"/>
        <polygon class="cls-3" points="396.82 405.57 417.04 358.15 426.15 366.75 409.33 406.2 396.82 405.57"/>
        <path class="cls-9" d="M356.55,369.47h66.44c2.08,0,3.77,1.69,3.77,3.77v2.62c0,2.08-1.69,3.77-3.77,3.77h-66.44c-2.08,0-3.77-1.69-3.77-3.77v-2.62c0-2.08,1.69-3.77,3.77-3.77Z" transform="translate(887.18 162.92) rotate(113.09)"/>
        <path class="cls-11" d="M373.62,407.82c-1.61-.93-2.31-2.95-1.55-4.72l26.06-61.11c.82-1.92,3.03-2.81,4.94-1.99l2.4,1.02c1.59.68,2.48,2.31,2.26,3.95-.13-.08-.27-.16-.42-.22l-2.42-1.03c-1.92-.82-4.13.08-4.94,1.99l-26.06,61.13c-.14.32-.22.64-.27.98Z"/>
        <path class="cls-2" d="M356.55,369.47h66.44c2.08,0,3.77,1.69,3.77,3.77v2.62c0,2.08-1.69,3.77-3.77,3.77h-66.44c-2.08,0-3.77-1.69-3.77-3.77v-2.62c0-2.08,1.69-3.77,3.77-3.77Z" transform="translate(887.18 162.92) rotate(113.09)"/>
        <polygon class="cls-6" points="396.82 405.57 417.04 358.15 426.15 366.75 409.33 406.2 396.82 405.57"/>
        <polygon class="cls-6" points="423.79 406.91 436.68 376.69 445.79 385.3 436.31 407.53 423.79 406.91"/>
      </g>
    </g>
    <g id="Character">
      <ellipse class="cls-1" cx="214.77" cy="463.64" rx="113.41" ry="10.49"/>
      <g>
        <path class="cls-1" d="M298.92,346.04s5.48-1.4,3.55,2.21l-1.93,3.62-1.63-5.83Z"/>
        <path class="cls-9" d="M302.74,346.37l-4.11,3.62c-7.72,6.05-24.36,5.31-33.59,3.67l1.35,5.3,6.61,26.71s-8.21-12.79-26.14-21.13c-5.21-5.08-13.8-9.53-25.45-5.08-2.41.91-14.33.78-16.39,1.43h-.01c-.12.03-.23.07-.35.1h-.01c-6.33,2-11.16,2.9-15.42,3.73-1.42.28-2.78.54-4.09.84h-.01c-3.98.89-7.68,2.04-12.02,4.44,0,0-4.22.03-9.19,1.49h0c-5.15-1.05-25.38,1.05-29.8.04l-.09-34.86-10.65,6.67c-10.4,5.33-15.51,3.63-25.32,3.31l-3.57-.62s.01,42.71,6.95,53.83c9.38,15.04,40.22,18.88,50.85,19.77,2.22,7.48,4.74,15.07,6.55,22.22.23.91.44,1.84.61,2.75,2.12,10.38,1.34,20.25.34,24.83,2.52.24,5.11.47,7.79.68,4.99.4,10.24.75,15.69,1.05,12.99.69,27.18,1.08,42.02,1.08,5.5,0,10.89-.06,16.17-.15.21,0,.41-.01.6-.01,8.97-.19,17.6-.5,25.75-.95-.84-3.2-2.73-6.02-2.73-6.02-.73-5.01-2.37-13.62-4.28-22.57-2.09-9.79-5.9-24.16-7.83-30.52,30.88,27.23,59.2,13.54,59.03-9.6-.09-13.11-9.26-56.08-9.26-56.08Z"/>
        <path class="cls-11" d="M272.81,385.79c-.08-.13-.16-.26-.25-.38-.31-.43-.7-.81-1.08-1.18-5.65-5.56-11.58-10.97-18.01-15.63-2.69-1.95-5.59-3.58-8.25-5.56-5.33-3.96-11.48-6.24-18.19-5.04-3,.54-5.86,1.7-8.89,2.11-3.08.42-6.33.2-9.44.38-1.2.07-2.5.41-3.7.41-.12.03-.23.07-.36.1-.03,0-.05.01-.08.02.63.97,1.17,2,1.63,3.08,2.75-.13,5.54-.1,8.24-.56,2.93-.5,5.81-1.31,8.74-1.78,7.34-1.18,13.06,1.42,18.92,5.6,5.3,3.78,11.33,6.44,16.7,10.16,2.74,1.9,5.4,3.91,7.97,6.04,1.26,1.04,2.49,2.1,3.7,3.19.68.61,3.44,2.47,3.56,3.35-.21-1.49-.45-3.04-1.23-4.31Z"/>
        <path class="cls-11" d="M260.79,442.57c-1.38-6.44-3.49-14.86-5.33-21.68-2.15-1.53-4.51-18.81-6.7-20.74,1.93,6.36,5.93,36.32,8.03,46.11,1.91,8.95,3.55,17.56,4.28,22.57,0,0,.7,1.05,1.44,2.59,1.78-.08,3.55-.17,5.29-.27-.84-3.2-2.73-6.02-2.73-6.02-.73-5.01-2.37-13.62-4.28-22.57Z"/>
        <path class="cls-11" d="M302.74,346.37l-4.11,3.62c-.11.08-.23.15-.34.23,0,.07.01.14.02.22l.43-.38s9.16,42.97,9.26,56.08c.04,6.27-2.02,11.84-5.65,16.1,6.08-4.42,9.71-11.49,9.65-19.79-.09-13.11-9.26-56.08-9.26-56.08Z"/>
        <path class="cls-2" d="M302.74,346.37l-4.11,3.62c-7.72,6.05-24.36,5.31-33.59,3.67l1.35,5.3s6.61,26.71,6.61,26.71c-.12-.47-.74-1.06-1.03-1.44-1-1.33-2.09-2.6-3.21-3.82-3.93-4.27-8.44-8.01-13.32-11.15-3.81-2.45-7.76-4.65-11.56-7.14-5.21-3.41-10.82-5.1-17.06-4.14-2.66.41-5.23,1.41-7.92,1.83-2.36.37-4.76.56-7.15.57-2.24,0-4.57-.14-6.75.51-.12.03-.23.07-.36.1-6.33,2-11.16,2.9-15.42,3.73-1.42.28-2.78.54-4.11.84-3.98.89-7.68,2.04-12.02,4.44,0,0-4.22.03-9.19,1.49-5.15-1.05-25.38,1.05-29.8.04l-.09-34.86-10.65,6.67c-10.4,5.33-15.51,3.63-25.32,3.31l-3.57-.62s.01,42.71,6.95,53.83c9.38,15.04,40.22,18.88,50.85,19.77,2.22,7.48,4.74,15.07,6.55,22.22.23.91.44,1.84.61,2.75,2.12,10.38,1.34,20.25.34,24.83,2.52.24,5.11.47,7.79.68,4.99.4,10.24.75,15.69,1.05,12.99.69,27.18,1.08,42.02,1.08,5.5,0,10.89-.06,16.17-.15.21,0,.41-.01.6-.01,8.97-.19,17.6-.5,25.75-.95-.84-3.2-2.73-6.02-2.73-6.02-.73-5.01-2.37-13.62-4.28-22.57-2.09-9.79-5.9-24.16-7.83-30.52,30.88,27.23,59.2,13.54,59.03-9.6-.09-13.11-9.26-56.08-9.26-56.08Z"/>
        <path class="cls-2" d="M252.96,412.05c-4.77-14.64-11.34-27.53-11.34-27.53"/>
        <line class="cls-2" x1="275.13" y1="394.52" x2="273" y2="385.68"/>
        <line class="cls-2" x1="130.32" y1="381.34" x2="134.3" y2="372.89"/>
        <path class="cls-1" d="M101.24,340.62s-10.4,3.57-6.75,5.43c2.13,1.09,6.87.83,6.87.83l-.12-6.27Z"/>
        <path class="cls-4" d="M298.63,349.99l-1.68-7.7s3.7-11.68,1.13-15.77c-2.29-3.64-4.79-2.55-4.79-2.55,0,0,1.89-2.68-.74-6.57-2.6-3.83-6.8-1.26-6.8-1.26,0,0-2.97-7.31-8.17-4.22s-7.62,7.23-7.62,7.23c1.71,1.37-7.02-9.23-11.18-5.5-2.8,2.51,2.89,15.04,4.05,22.95,1.16,7.91,5.66,17.93,5.66,17.93,0,0,14.58,1.84,19.21.87s10.94-5.41,10.94-5.41Z"/>
        <path class="cls-1" d="M297.93,353.25h0c-1.69,1.24-4.07.88-5.31-.81l-26.82-39.03,6.12-4.5,26.82,39.03c1.24,1.69.88,4.07-.81,5.31Z"/>
        <path class="cls-4" d="M277.58,311.92c-.4.46-11.28,7.08-6.94,12.05,3.68,4.22,12.13-5.81,12.13-5.81"/>
        <path class="cls-5" d="M278.15,281.2c-6.24-11.82-18.81-17.45-28.07-12.56-1.23.65-2.32,1.46-3.31,2.38,8.64-1.89,18.82,3.69,24.24,13.94,5.42,10.26,4.29,21.81-2.15,27.88,1.32-.29,2.61-.74,3.83-1.39,9.26-4.89,11.7-18.44,5.46-30.26Z"/>
        <path class="cls-5" d="M244.62,298.91c-5.42-10.26-4.29-21.81,2.15-27.88-1.32.29-2.61.74-3.83,1.39-9.26,4.89-11.7,18.44-5.46,30.26,6.24,11.82,18.81,17.45,28.07,12.56,1.23-.65,2.32-1.46,3.31-2.38-8.65,1.89-18.82-3.69-24.24-13.94Z"/>
        <path class="cls-4" d="M285.29,316.45c-.58.19-10.8,6.78-8.87,12.78,1.91,5.96,13.9-3.19,13.79-3.34"/>
        <path class="cls-4" d="M293.29,323.97c-.58.19-12.24,7.01-10.32,13.02,1.91,5.96,11.78-2.94,11.67-3.09"/>
        <path class="cls-1" d="M199.36,370.98c5.44.16,9.05-1.86,7.79-5.14-1.33-3.31-6.79-6.38-12.43-7.91-2.09-.56-4.22-.87-6.17-.93-3.72-.11-6.8.74-7.83,2.65h0c-.98,1.48.32,3.69,2.27,5.41,2.05,1.81,5.07,3.37,8.32,4.43,2.64.86,5.46,1.4,8.04,1.48Z"/>
        <path class="cls-12" d="M208.71,353.3c-.02.33-.04.64-.08.96-.04.31-.09.62-.15.93-.03.23-.08.45-.14.67-.04.19-.08.35-.14.51-.08.3-.17.6-.27.88-.1.32-.23.62-.36.92-.13.3-.26.59-.41.89-.14.28-.3.57-.47.85-.16.28-.34.55-.52.82,0-.02,0-.03,0-.05-2.74,4.07-7.44,6.77-12.67,7.22-.2.01-.39.04-.6.04-.02,0-.04,0-.06,0-.31.02-.61.03-.93.04-.4,0-.79-.02-1.18-.04-.3-.02-.61-.04-.92-.08-.24-.03-.5-.06-.73-.08-.72-.09-1.44-.23-2.14-.41-.3-.07-.6-.15-.89-.24-.14-.04-.27-.07-.38-.13-.29-.08-.55-.17-.8-.26h-.02c-.24-.09-.47-.17-.71-.28-.3-.12-.59-.23-.89-.38-.2-.08-.4-.18-.58-.27-.03-.02-.04-.02-.07-.04-.41-.2-.8-.42-1.2-.65-.4-.23-.77-.47-1.15-.73-.33-.22-.65-.45-.95-.69l-.52-.4c-.07-.07-.15-.14-.24-.2-.2-.17-.41-.35-.59-.52t-.03-.02c-.27-.25-.53-.49-.78-.75l-.02-.03c-.1-.11-.21-.22-.31-.32-.1-.11-.21-.23-.32-.36-.28-.29-.53-.6-.76-.92-.02-.03-.06-.07-.08-.11l-.04-.07c-.14-.17-.27-.34-.39-.53,0,0-.02,0-.01-.02-.17-.23-.34-.47-.49-.71-.16-.26-.32-.51-.46-.79-.11-.18-.21-.38-.31-.57-.2-.37-.38-.76-.55-1.16-.11-.25-.21-.51-.3-.76-.05-.16-.11-.33-.16-.49-.1-.32-.21-.65-.3-.99-.09-.32-.16-.66-.23-1.01-.05-.23-.09-.45-.13-.68-.02-.1-.03-.2-.05-.3-.03-.22-.05-.44-.09-.68,0-.03,0-.06,0-.09-.03-.25-.05-.51-.05-.77h0c0-.28-.01-.54-.01-.8,0-.51.02-1.01.08-1.53,0-.07.01-.13.03-.21,0-.08,0-.16.03-.26.01-.13.03-.28.06-.42.03-.11.03-.23.06-.34.02-.04.02-.09.03-.15.05-.25.1-.49.18-.73.04-.19.09-.36.16-.53.07-.25.15-.47.24-.71,0-.02.02-.03.03-.03,0-.03,0-.04.01-.06,0-.02,0-.04.01-.06.09-.21.2-.44.3-.66.02-.04.05-.08.06-.11t0-.02c.03-.05.06-.1.09-.15.01-.06.04-.09.07-.14.11-.21.22-.41.34-.59h0c.14-.27.3-.52.46-.76.03-.05.06-.08.09-.14.09-.15.2-.3.29-.43.04-.04.06-.08.1-.12.05-.08.09-.14.13-.19.02-.01.04-.06.06-.08.05-.07.11-.13.17-.2.03-.03.05-.08.08-.1.31-.4.64-.78.99-1.14.03-.03.05-.05.08-.08.46-.48.95-.92,1.47-1.33.08-.07.19-.15.29-.23.15-.12.31-.24.47-.36h.01c.18-.13.36-.27.56-.37.03-.03.07-.06.11-.08.3-.19.61-.38.92-.54l.08-.05c.06-.04.13-.07.19-.1l.05-.03c.23-.11.45-.22.68-.33.11-.05.23-.11.35-.15.12-.06.25-.13.38-.18.12-.04.23-.08.34-.14.22-.09.45-.17.67-.24.05-.02.11-.03.16-.05.06-.02.13-.05.18-.07.33-.11.66-.21,1-.29.24-.07.48-.12.72-.18.14-.03.28-.06.42-.09.34-.07.68-.14,1.01-.17.33-.05.69-.08,1.03-.13.03,0,.05,0,.08,0h.01c.34-.03.69-.05,1.01-.07.36-.02.71-.01,1.06,0,.36.01.72.03,1.06.05,0,0,.01,0,.03,0,.16,0,.35.02.53.05.18.01.36.04.53.06h.01c.7.08,1.41.21,2.11.39.35.08.7.18,1.05.28.35.1.69.22,1.02.34.53.19,1.06.42,1.57.66.51.24,1.03.5,1.52.78.75.41,1.46.87,2.14,1.36h0c.69.5,1.34,1.05,1.95,1.62.21.19.41.38.61.59.39.39.76.81,1.12,1.24,2.6,3.12,4.16,7,3.96,11.3Z"/>
        <path class="cls-11" d="M172.11,348.16h.01c3.82-5.55,10.63-7.95,17.05-7.14,1.45.19,2.87.53,4.23,1.04,7.3,2.73,13.24,9.42,12.87,17.55-.02.4-.08.76-.12,1.14.18-.27.36-.54.52-.82.17-.28.33-.57.47-.85.15-.3.28-.59.41-.89.13-.3.26-.6.36-.92.11-.29.19-.58.27-.88.06-.16.1-.33.14-.52.05-.22.1-.45.14-.67.06-.31.1-.62.15-.93.04-.31.07-.63.09-.96.2-4.3-1.36-8.18-3.96-11.3-.36-.43-.73-.84-1.12-1.24-.2-.21-.39-.4-.61-.59-.61-.57-1.27-1.11-1.95-1.61h0c-.69-.51-1.4-.96-2.14-1.38-.49-.28-1.01-.55-1.52-.78s-1.04-.46-1.57-.66c-.33-.13-.68-.24-1.02-.34-.35-.1-.7-.2-1.05-.28-.7-.18-1.4-.32-2.11-.4h-.01s0,0,0,0c-.34-.04-.7-.08-1.05-.11-.02,0-.03,0-.03,0-.35-.02-.7-.04-1.06-.05-.35,0-.7,0-1.06,0-.33.01-.67.04-1.01.06h-.01s-.05,0-.08,0c-.33.05-.69.08-1.03.13-.33.03-.67.1-1.01.17-.14.03-.28.06-.42.09-.12.03-.26.05-.39.09-.11.02-.22.06-.32.09-.21.05-.42.12-.64.17-.12.03-.24.07-.36.11-.05.02-.12.04-.18.07-.05.02-.11.03-.16.05-.22.08-.45.15-.67.24-.24.1-.48.19-.73.31-.12.04-.24.1-.35.15-.22.11-.45.22-.68.33l-.05.03c-.06.04-.13.07-.19.1l-.08.05c-.31.16-.62.35-.92.54-.03.02-.08.05-.11.08-.2.11-.39.24-.56.37h-.01c-.16.13-.33.24-.47.37-.1.08-.2.16-.29.23-.52.41-1.01.85-1.47,1.33-.03.03-.05.05-.08.08-.35.36-.68.74-.99,1.14-.03.02-.05.07-.08.1-.07.07-.12.14-.17.2-.04.07-.09.12-.11.18-.03.02-.06.05-.08.1-.14.18-.26.37-.38.56-.03.05-.06.08-.09.14-.15.24-.32.48-.46.74h0c-.12.2-.24.4-.34.61-.03.05-.06.08-.07.14-.04.06-.07.11-.1.17,0,.04-.04.07-.06.11-.1.22-.21.45-.3.66-.01.06-.03.1-.05.14-.09.23-.17.46-.24.71-.07.17-.12.34-.16.53-.07.24-.13.48-.18.73-.01.06-.01.1-.03.15-.03.11-.03.23-.06.34-.02.14-.05.28-.06.42-.02.09-.03.18-.03.26-.02.07-.02.14-.03.21Z"/>
        <path class="cls-2" d="M208.71,353.3c-.02.33-.04.64-.08.96-.04.31-.09.62-.15.93-.03.23-.08.45-.14.67-.04.19-.08.35-.14.51-.08.3-.17.6-.27.88-.1.32-.23.62-.36.92-.13.3-.26.59-.41.89-.14.28-.3.57-.47.85-.16.28-.34.55-.52.82,0-.02,0-.03,0-.05-2.74,4.07-7.44,6.77-12.67,7.22-.2.01-.39.04-.6.04-.02,0-.04,0-.06,0-.31.02-.61.03-.93.04-.4,0-.79-.02-1.18-.04-.3-.02-.61-.04-.92-.08-.24-.03-.5-.06-.73-.08-.72-.09-1.44-.23-2.14-.41-.3-.07-.6-.15-.89-.24-.14-.04-.27-.07-.38-.13-.29-.08-.55-.17-.8-.26h-.02c-.24-.09-.47-.17-.71-.28-.3-.12-.59-.23-.89-.38-.09-.02-.18-.08-.28-.11-.1-.05-.2-.11-.31-.16-.03-.02-.04-.02-.07-.04-.41-.2-.8-.42-1.2-.65-.4-.23-.77-.47-1.15-.73-.33-.22-.65-.45-.95-.69l-.52-.4c-.07-.07-.15-.14-.24-.2-.2-.17-.41-.35-.59-.52t-.03-.02c-.27-.25-.53-.49-.78-.75-.12-.12-.22-.23-.33-.35-.1-.11-.21-.23-.32-.36-.05-.05-.08-.11-.13-.16-.22-.26-.42-.5-.63-.76-.02-.03-.06-.07-.08-.11l-.04-.07c-.14-.17-.27-.34-.39-.53,0,0-.02,0-.01-.02-.07-.08-.14-.18-.21-.28-.1-.13-.19-.28-.28-.43-.05-.08-.1-.16-.14-.25-.11-.18-.22-.35-.32-.54-.11-.18-.21-.38-.31-.57-.2-.37-.38-.76-.55-1.16-.11-.25-.21-.51-.3-.76-.05-.16-.11-.33-.16-.49-.1-.32-.21-.65-.3-.99-.09-.32-.16-.66-.23-1.01-.05-.23-.09-.45-.13-.68-.02-.1-.03-.2-.05-.3-.03-.22-.05-.44-.09-.68,0-.03,0-.06,0-.09-.02-.1-.02-.21-.04-.31-.01-.15-.02-.31-.02-.46h0c0-.28-.01-.54-.01-.8,0-.51.02-1.01.08-1.53h.01c0-.07,0-.13.02-.21,0-.08,0-.16.03-.26.01-.13.03-.28.06-.42.03-.11.03-.23.06-.34.02-.04.02-.09.03-.15.05-.25.1-.49.18-.73.04-.19.09-.36.16-.53.07-.25.15-.47.24-.71,0-.02.02-.03.03-.03.09-.26.2-.52.33-.77.02-.04.05-.08.06-.11t0-.02c.03-.05.06-.1.09-.15.01-.06.04-.09.07-.14.11-.21.22-.41.34-.59h0c.14-.27.3-.52.46-.76.03-.05.06-.08.09-.14.09-.15.2-.3.29-.43.04-.04.06-.08.1-.12.02-.04.05-.08.08-.1.09-.14.19-.26.28-.38.03-.03.05-.08.08-.1.19-.28.41-.54.63-.77.12-.12.24-.26.36-.37.03-.03.05-.05.08-.08.46-.48.95-.92,1.47-1.33.08-.07.19-.15.29-.23.1-.08.19-.15.29-.23.07-.04.13-.1.19-.13h.01c.13-.1.27-.19.4-.29.08-.07.18-.13.27-.18.3-.19.59-.37.92-.53l.08-.05c.06-.04.13-.07.19-.1l.05-.03c.13-.07.27-.13.4-.2.1-.05.19-.08.28-.13.11-.05.23-.11.35-.15.12-.06.25-.13.38-.18.11-.05.22-.09.33-.14.12-.03.24-.07.35-.12.11-.03.22-.08.34-.12.05-.02.11-.03.16-.05.06-.02.13-.05.18-.07.12-.04.23-.08.36-.11.22-.06.43-.13.64-.17.11-.03.21-.07.32-.09.14-.04.27-.06.39-.09.14-.03.28-.06.42-.09.34-.07.68-.14,1.01-.17.33-.05.69-.08,1.03-.13.03,0,.05,0,.08,0h.01c.34-.03.69-.05,1.01-.07.36-.02.71-.01,1.06,0,.36.01.72.03,1.06.05,0,0,.01,0,.03,0,.16,0,.35.02.53.05.18.01.35.03.53.05h0s.01,0,.01,0c.7.08,1.41.22,2.11.4.35.08.7.18,1.05.28.35.1.69.22,1.02.34.53.19,1.06.42,1.57.66.51.24,1.03.5,1.52.78.75.41,1.46.87,2.14,1.36h0c.69.5,1.34,1.05,1.95,1.62.21.19.41.38.61.59.39.39.76.81,1.12,1.24,2.6,3.12,4.16,7,3.96,11.3Z"/>
        <path class="cls-1" d="M165.01,329.8c1.55-.65,3.03,1.25,2.11,2.71-2.27,3.57-5.64,9.56-5.74,13.76-.15,6.35-3.6,7.11-5.03,4.11-1.44-3,1.16-13.69,5.18-18.02,1.23-1.33,2.42-2.11,3.49-2.56Z"/>
        <path class="cls-1" d="M175.67,324.61c-.21,1.1-1.19,1.79-2.19,1.54-1-.25-1.63-1.35-1.42-2.45.21-1.1,1.19-1.79,2.19-1.54,1,.25,1.63,1.35,1.42,2.45Z"/>
        <path class="cls-1" d="M184.19,329.46c-1.37.86-2.16,2.29-2.25,3.79-1.39-.57-3.02-.5-4.4.35-2.21,1.38-2.9,4.24-1.62,6.48-.03.03-.06.06-.09.1-.22.23-.44.49-.63.77-.03.02-.05.07-.08.1-.1.12-.19.25-.28.38-.03.02-.06.05-.08.1-.04.04-.06.08-.1.12-.09.14-.19.28-.29.43-.03.05-.06.08-.09.14-.15.24-.32.48-.46.74h0c-.12.2-.24.4-.34.61-.03.05-.06.08-.07.14-.03.05-.06.1-.09.15t0,.02s-.04.07-.06.11c-.13.25-.24.51-.33.77-.01,0-.02.01-.03.03-.09.23-.17.46-.24.71-.07.17-.12.34-.16.53-.07.24-.13.48-.18.73-.01.06-.01.1-.03.15-.03.11-.03.23-.06.34-.02.14-.05.28-.06.42-.02.09-.03.18-.03.26-.02.07-.02.14-.02.2h-.01c-.06.52-.08,1.02-.08,1.53,0,.25,0,.52.01.78h0c0,.17,0,.33.02.48.02.1.02.21.04.31,0,.03,0,.06,0,.09.03.23.06.45.09.68.02.1.03.2.05.3.03.23.08.46.12.68.08.35.14.69.23,1.01.09.34.2.67.3.99.05.16.11.33.16.49.1.26.19.51.3.76.17.4.35.79.55,1.16.1.19.19.39.31.57.14.28.3.53.46.79.09.15.19.3.28.43.06.1.14.2.21.28,0,.02.01.02.01.02.12.19.26.36.4.53l.04.07s.06.07.08.11c.23.32.49.63.76.92.11.12.22.25.32.36.11.12.21.23.33.35.25.25.52.5.78.75t.03.02c.19.17.39.34.59.52.08.06.16.14.24.2l.52.4c.31.24.62.47.95.69.38.25.75.5,1.15.73.4.23.79.45,1.2.65.03.02.04.02.07.04.11-.18.21-.37.32-.55,1.42-1.87,2.66-3.88,3.67-6.07,2.77-5.98,3.53-12.31,2.52-18.2-.17-1.01-.39-2-.67-2.97.27-.11.54-.23.79-.39,2.26-1.41,2.95-4.39,1.54-6.65-1.41-2.26-4.39-2.95-6.65-1.54Z"/>
        <path class="cls-4" d="M101.36,346.89c11.29,3.9,31.3-7.99,31.3-7.99-1.15-.08-.35-7.6-.35-7.6,0,0,9.66-19.02,6.15-24.3-3.21-4.81-8.14,3.66-8.14,3.66,0,0,0-37.6-11.14-19.47,0,0-5.59-1.16-6.75,5.78,0,0-5.59-.96-6.94,10.22-1.59,13.16-4.13,39.7-4.13,39.7h0Z"/>
        <path class="cls-2" d="M124.19,320.83c0-4.37,6.13-10.17,6.13-10.17"/>
        <line class="cls-2" x1="113.78" y1="312.4" x2="112.43" y2="296.97"/>
        <line class="cls-2" x1="121.3" y1="304.69" x2="120.29" y2="290.8"/>
        <ellipse class="cls-6" cx="90.3" cy="363.68" rx="114.35" ry="50.59" transform="translate(-281.85 319.87) rotate(-69.34)"/>
        <path class="cls-6" d="M130.64,256.68c-.96-.36-1.94-.65-2.93-.88,20.52,15.71,21.49,67.26,1.04,121.51-21.46,56.93-58.68,96.05-84.75,90.03,1.83,1.4,3.82,2.53,5.96,3.33,26.14,9.86,65.4-30.06,87.68-89.15,22.28-59.09,19.15-114.99-7-124.84Z"/>
        <ellipse class="cls-6" cx="81.41" cy="360.33" rx="72.28" ry="26.9" transform="translate(-284.47 309.39) rotate(-69.34)"/>
        <path class="cls-6" d="M66.5,350.4c-7.18,19.03-7.25,36.62-.17,39.3,7.08,2.67,18.64-10.59,25.82-29.62,7.18-19.03,7.25-36.62.17-39.29s-18.64,10.59-25.82,29.62Z"/>
        <path class="cls-2" d="M186.73,371.56c2.14,2.36,14.6,6.94,21.99,5.1"/>
        <path class="cls-2" d="M180.39,437.6c12.44,15.36,34.3,23.63,46.71,21.86"/>
      </g>
    </g>
  </g>
</svg>