<?xml version="1.0" encoding="UTF-8"?>
<svg version="1.1" xmlns="http://www.w3.org/2000/svg" width="425" height="512">
<path d="M0 0 C140.25 0 280.5 0 425 0 C424.36988671 18.27328549 423.67433369 36.50242565 422.625 54.75 C422.49269462 57.09178875 422.36053662 59.43358583 422.22851562 61.77539062 C421.30756526 78.02198477 420.32322241 94.26447571 419.31304932 110.5057373 C418.30824148 126.66702336 417.38486751 142.83172513 416.5 159 C415.44951612 178.19030927 414.33605899 197.37530148 413.12060547 216.5559082 C412.44430639 227.29742691 411.83696639 238.03860819 411.3203125 248.7890625 C409.47460021 286.67748013 406.95203738 323.66619802 389 358 C388.22997569 359.52188605 387.46049142 361.0440454 386.69140625 362.56640625 C381.99363707 371.77040271 377.06925894 380.61398093 371 389 C370.56461914 389.60376465 370.12923828 390.2075293 369.68066406 390.82958984 C359.26819139 405.19765868 347.93992491 418.23278344 335.4375 430.8125 C334.95453461 431.30082306 334.47156921 431.78914612 333.97396851 432.29226685 C327.32930735 438.99276667 320.38380158 445.12324316 313 451 C311.6943928 452.08431259 310.39192042 453.17241984 309.09375 454.265625 C283.86064915 475.31222289 255.14161632 492.1550729 225.75 506.6875 C224.67782227 507.22963135 223.60564453 507.7717627 222.50097656 508.33032227 C221.48487305 508.82330811 220.46876953 509.31629395 219.421875 509.82421875 C218.52049805 510.26854248 217.61912109 510.71286621 216.69042969 511.1706543 C212.16081474 512.56694304 208.25377864 511.34869774 204.06640625 509.390625 C203.34678711 509.05482422 202.62716797 508.71902344 201.88574219 508.37304688 C201.11907227 508.00244141 200.35240234 507.63183594 199.5625 507.25 C198.74555664 506.85876953 197.92861328 506.46753906 197.08691406 506.06445312 C186.45073866 500.87626986 176.22197251 494.95174205 166 489 C165.2673291 488.57686523 164.5346582 488.15373047 163.77978516 487.71777344 C140.14882152 474.04545005 118.09382443 457.45111762 98 439 C97.47583496 438.52095215 96.95166992 438.0419043 96.41162109 437.54833984 C87.49473341 429.39805069 78.95284755 421.3763961 71.375 411.9296875 C69.82204289 410.01403316 68.23948543 408.12190588 66.625 406.2578125 C43.31530266 379.28729731 26.63461091 345.66644636 19.1875 310.875 C18.9925293 309.97112549 18.79755859 309.06725098 18.59667969 308.13598633 C14.56390353 287.9703274 14.21331349 267.22141684 13.18793869 246.73996353 C12.80493437 239.13731088 12.4053753 231.53549623 12.0078125 223.93359375 C11.96445959 223.10185827 11.92110668 222.2701228 11.87644005 221.41318321 C11.16092023 207.70619501 10.35049378 194.00786701 9.4375 180.3125 C8.24375155 162.35599123 7.25123302 144.39323178 6.31323242 126.42163086 C5.456364 110.04455067 4.50672371 93.67707674 3.4375 77.3125 C2.56358957 63.88836259 1.6956009 50.46447363 0.94436646 37.0328064 C0.85895273 35.51368352 0.77188036 33.99465261 0.68283081 32.47573853 C0.62121262 31.42004166 0.62121262 31.42004166 0.55834961 30.34301758 C0.52261337 29.73879471 0.48687714 29.13457184 0.45005798 28.51203918 C-0.03823166 18.94364537 0 9.64153079 0 0 Z " fill="#302682" transform="translate(0,0)"/>
<path d="M0 0 C1.17240234 -0.00773437 2.34480469 -0.01546875 3.55273438 -0.0234375 C35.85438932 0.04790796 68.54258828 12.29900344 93.0625 33.25 C93.60213379 33.70600586 94.14176758 34.16201172 94.69775391 34.63183594 C103.30801712 41.98754013 110.48677742 50.04041184 117.0625 59.25 C117.45920898 59.80381348 117.85591797 60.35762695 118.26464844 60.92822266 C128.54461286 75.52094668 136.03900569 91.85450683 140.0625 109.25 C140.32144043 110.33821045 140.58038086 111.4264209 140.84716797 112.54760742 C142.88658563 121.77087076 143.55336546 130.59333857 143.4375 140.0625 C143.42952393 141.11123291 143.42952393 141.11123291 143.42138672 142.18115234 C143.06907979 181.8292322 127.37108748 217.42127688 99.27587891 245.4050293 C70.52609961 273.14423529 33.7129356 283.98676499 -5.41015625 283.52734375 C-42.72074145 282.85011511 -76.64275365 265.87379484 -102.66796875 239.49609375 C-104.5084835 237.4719647 -106.22906862 235.38726841 -107.9375 233.25 C-108.75992188 232.22648438 -109.58234375 231.20296875 -110.4296875 230.1484375 C-116.00822116 222.98692846 -120.64949581 215.53490365 -124.875 207.5 C-125.54740723 206.22443237 -125.54740723 206.22443237 -126.23339844 204.9230957 C-130.52755106 196.51870983 -133.67918827 187.81017641 -136.0625 178.6875 C-136.53042969 176.92212891 -136.53042969 176.92212891 -137.0078125 175.12109375 C-137.31460938 173.84363281 -137.62140625 172.56617188 -137.9375 171.25 C-138.11917725 170.56502441 -138.30085449 169.88004883 -138.48803711 169.17431641 C-140.48397318 160.80046948 -140.29185005 152.30369155 -140.25 143.75 C-140.24751251 142.94464813 -140.24502502 142.13929626 -140.24246216 141.30953979 C-140.18704938 129.74352475 -140.04953376 118.46585321 -136.9375 107.25 C-136.71707031 106.44175781 -136.49664062 105.63351563 -136.26953125 104.80078125 C-126.36803999 69.75264553 -104.34076411 41.07154798 -73.9375 21.25 C-73.15246094 20.71761719 -72.36742187 20.18523438 -71.55859375 19.63671875 C-50.72117169 6.19205165 -24.55442137 -0.16145373 0 0 Z " fill="#E20612" transform="translate(210.9375,43.75)"/>
<path d="M0 0 C140.25 0 280.5 0 425 0 C424.36988671 18.27328549 423.67433369 36.50242565 422.625 54.75 C422.49269462 57.09178875 422.36053662 59.43358583 422.22851562 61.77539062 C421.30756526 78.02198477 420.32322241 94.26447571 419.31304932 110.5057373 C418.30824148 126.66702336 417.38486751 142.83172513 416.5 159 C415.44951612 178.19030927 414.33605899 197.37530148 413.12060547 216.5559082 C412.44430639 227.29742691 411.83696639 238.03860819 411.3203125 248.7890625 C409.47460021 286.67748013 406.95203738 323.66619802 389 358 C388.22997569 359.52188605 387.46049142 361.0440454 386.69140625 362.56640625 C381.99363707 371.77040271 377.06925894 380.61398093 371 389 C370.56461914 389.60376465 370.12923828 390.2075293 369.68066406 390.82958984 C359.26819139 405.19765868 347.93992491 418.23278344 335.4375 430.8125 C334.95453461 431.30082306 334.47156921 431.78914612 333.97396851 432.29226685 C327.32930735 438.99276667 320.38380158 445.12324316 313 451 C311.6943928 452.08431259 310.39192042 453.17241984 309.09375 454.265625 C283.86064915 475.31222289 255.14161632 492.1550729 225.75 506.6875 C224.67782227 507.22963135 223.60564453 507.7717627 222.50097656 508.33032227 C221.48487305 508.82330811 220.46876953 509.31629395 219.421875 509.82421875 C218.52049805 510.26854248 217.61912109 510.71286621 216.69042969 511.1706543 C212.16081474 512.56694304 208.25377864 511.34869774 204.06640625 509.390625 C203.34678711 509.05482422 202.62716797 508.71902344 201.88574219 508.37304688 C201.11907227 508.00244141 200.35240234 507.63183594 199.5625 507.25 C198.74555664 506.85876953 197.92861328 506.46753906 197.08691406 506.06445312 C186.45073866 500.87626986 176.22197251 494.95174205 166 489 C165.2673291 488.57686523 164.5346582 488.15373047 163.77978516 487.71777344 C140.14882152 474.04545005 118.09382443 457.45111762 98 439 C97.47583496 438.52095215 96.95166992 438.0419043 96.41162109 437.54833984 C87.49473341 429.39805069 78.95284755 421.3763961 71.375 411.9296875 C69.82204289 410.01403316 68.23948543 408.12190588 66.625 406.2578125 C43.31530266 379.28729731 26.63461091 345.66644636 19.1875 310.875 C18.9925293 309.97112549 18.79755859 309.06725098 18.59667969 308.13598633 C14.56390353 287.9703274 14.21331349 267.22141684 13.18793869 246.73996353 C12.80493437 239.13731088 12.4053753 231.53549623 12.0078125 223.93359375 C11.96445959 223.10185827 11.92110668 222.2701228 11.87644005 221.41318321 C11.16092023 207.70619501 10.35049378 194.00786701 9.4375 180.3125 C8.24375155 162.35599123 7.25123302 144.39323178 6.31323242 126.42163086 C5.456364 110.04455067 4.50672371 93.67707674 3.4375 77.3125 C2.56358957 63.88836259 1.6956009 50.46447363 0.94436646 37.0328064 C0.85895273 35.51368352 0.77188036 33.99465261 0.68283081 32.47573853 C0.62121262 31.42004166 0.62121262 31.42004166 0.55834961 30.34301758 C0.52261337 29.73879471 0.48687714 29.13457184 0.45005798 28.51203918 C-0.03823166 18.94364537 0 9.64153079 0 0 Z M12 11 C11.9790433 26.06851445 11.9790433 26.06851445 12.5859375 41.078125 C12.64705719 42.12464233 12.70817688 43.17115967 12.77114868 44.24938965 C12.96727124 47.5832569 13.17096136 50.91660877 13.375 54.25 C13.51468845 56.59796005 13.65400777 58.94594209 13.79296875 61.29394531 C14.5418251 73.86464239 15.34522518 86.4301612 16.2277832 98.9921875 C17.3348766 115.22803714 18.11296775 131.48563197 18.94726562 147.73730469 C19.00937729 148.93029175 19.07148895 150.12327881 19.13548279 151.35241699 C19.25246686 153.59978974 19.36755638 155.84726227 19.48036194 158.09484863 C19.77397698 163.70715117 20.19444373 169.27981846 20.78578186 174.86849976 C21.03660995 177.36427405 21.17089168 179.84847985 21.24609375 182.35546875 C21.27759521 183.29036133 21.30909668 184.22525391 21.34155273 185.18847656 C21.37321533 186.1781543 21.40487793 187.16783203 21.4375 188.1875 C21.82766395 199.02124158 22.46828788 209.82564557 23.20117188 220.64111328 C23.68291241 227.80661804 24.11529701 234.9714595 24.46875 242.14453125 C26.37634022 289.47405943 26.37634022 289.47405943 38.23974609 335.03125 C38.96391634 336.90655792 39.64905588 338.79679986 40.33203125 340.6875 C50.37995006 367.55916761 67.78522599 391.42108679 87.34765625 412.16015625 C89.39523301 414.3524807 91.34717404 416.55963724 93.25 418.875 C95.79427721 421.88853871 98.62690958 424.39489604 101.6328125 426.94140625 C103.92782643 428.9372352 106.13174972 431.0118393 108.33447266 433.10839844 C115.72784271 440.10316157 123.59875086 446.30485338 131.77636719 452.35449219 C133.25206667 453.44652277 134.72412265 454.54349517 136.19238281 455.64550781 C147.6742052 464.26071382 159.58203577 471.81136347 172 479 C173.21264829 479.71284685 174.42492832 480.42632081 175.63671875 481.140625 C179.06752961 483.13820955 182.52329966 485.08397432 186 487 C186.82741699 487.45858398 187.65483398 487.91716797 188.50732422 488.38964844 C191.28814701 489.92160466 194.07983612 491.43188948 196.875 492.9375 C197.75534912 493.4229126 198.63569824 493.9083252 199.54272461 494.40844727 C206.87824263 498.43348388 206.87824263 498.43348388 215 499 C219.51750651 497.3980776 223.70933479 495.23672038 227.9375 493 C229.17578458 492.36159797 230.41439682 491.72383115 231.65332031 491.08666992 C275.41721181 468.37015793 319.58651661 437.37865201 350 398 C350.7734375 397.04351562 351.546875 396.08703125 352.34375 395.1015625 C359.67348905 385.89299793 365.9573954 376.09204182 372 366 C372.38430176 365.35836914 372.76860352 364.71673828 373.16455078 364.05566406 C388.22052168 338.47371443 395.95814706 309.3388732 397.921875 279.91015625 C398.00505478 278.68294861 398.08823456 277.45574097 398.17393494 276.19134521 C399.60471189 254.64378405 400.61712405 233.06812223 401.73010254 211.50244141 C402.05838072 205.14476347 402.3887869 198.78720324 402.72208977 192.42978668 C402.87539815 189.48916422 403.02560378 186.54839418 403.17567444 183.60760498 C403.27003446 181.80187162 403.36454441 179.99614608 403.45922852 178.19042969 C403.49924484 177.38937805 403.53926117 176.58832642 403.58049011 175.76300049 C403.8240735 171.18989937 404.23640417 166.66609174 404.76733303 162.11772728 C405.10314628 159.06116589 405.28932958 156.00290077 405.46484375 152.93334961 C405.52117477 151.96507988 405.52117477 151.96507988 405.5786438 150.97724915 C405.70064924 148.86907662 405.81917846 146.76072599 405.9375 144.65234375 C406.02319813 143.15327567 406.1090576 141.6542168 406.19506836 140.15516663 C406.37474868 137.01425562 406.55274932 133.87325537 406.72949219 130.73217773 C406.95184034 126.78223405 407.17791897 122.83251518 407.40518188 118.8828516 C408.27040452 103.82413557 409.09014089 88.7692605 409.67602539 73.69659424 C410.00092489 65.49615273 410.57584729 57.33366525 411.25 49.15429688 C412.23296318 36.42953137 412.52600742 23.79779966 413 11 C280.67 11 148.34 11 12 11 Z " fill="#302583" transform="translate(0,0)"/>
<path d="M0 0 C132.33 0 264.66 0 401 0 C400.41184198 15.88026665 399.72219549 31.59018826 398.53125 47.41015625 C397.9322142 55.6848808 397.48734147 63.96488081 397.0625 72.25 C397.00317795 73.40222549 397.00317795 73.40222549 396.94265747 74.57772827 C396.7725563 77.88524154 396.60316837 81.19279045 396.43458557 84.50038147 C395.86574986 95.65969453 395.28302635 106.81826282 394.69235229 117.97644043 C394.56672888 120.35927915 394.4421115 122.74217118 394.31863403 125.12512207 C393.68546063 137.3442275 392.9793761 149.54902437 392.05859375 161.75 C391.11944376 174.33236051 390.45224114 186.92275392 389.81640625 199.5234375 C389.71315757 201.55482142 389.60987571 203.58620365 389.50656128 205.61758423 C389.08230679 213.98384457 388.66050577 222.35020579 388.25268555 230.71728516 C387.9991675 235.91124732 387.73624179 241.10466638 387.46766472 246.29787064 C387.36899757 248.23885748 387.27363308 250.18001585 387.18203926 252.12134933 C385.55712891 286.4800071 379.52967812 318.5192422 363 349 C362.48832275 349.96897217 362.48832275 349.96897217 361.96630859 350.95751953 C353.484248 367.00903894 343.00867753 381.41701414 331 395 C330.29875 395.81210937 329.5975 396.62421875 328.875 397.4609375 C319.30557642 408.3715303 309.03997876 418.9732389 297.61328125 427.9453125 C294.82068253 430.14098803 292.1356131 432.43944077 289.4375 434.75 C269.64783275 451.22438795 247.54823033 464.67342147 225 477 C224.02933594 477.53173828 223.05867187 478.06347656 222.05859375 478.61132812 C219.11518981 480.20583182 216.1557317 481.76478097 213.1875 483.3125 C212.28668701 483.79920166 211.38587402 484.28590332 210.45776367 484.78735352 C206.0752769 487.020329 202.3127433 488.86872293 197.2722168 487.8034668 C191.69781657 485.83233204 186.51713623 483.02364773 181.3125 480.25 C180.01899719 479.57081436 178.72545838 478.89169726 177.43188477 478.21264648 C166.29509088 472.32289308 155.5614409 465.86729349 145 459 C143.91589844 458.3090625 142.83179688 457.618125 141.71484375 456.90625 C124.47673041 445.71451754 108.51665559 432.94112309 93.33984375 419.1171875 C91.78449632 417.70984475 90.21408863 416.31896313 88.62890625 414.9453125 C84.3887375 411.27002289 80.54219276 407.52418727 76.92578125 403.234375 C74.63497958 400.57648746 72.22194453 398.05077103 69.8125 395.5 C49.0703699 373.08390596 34.62770687 346.43036915 24 318 C23.5875 316.90558594 23.175 315.81117188 22.75 314.68359375 C12.30442218 284.04051194 13.09214071 248.3819267 11.64599609 216.34765625 C11.3038088 208.7954723 10.89387044 201.27709334 10.21875 193.74560547 C9.76392667 188.03696351 9.64674122 182.30905995 9.48242188 176.5859375 C9.22189326 169.03552343 8.66387018 161.52966545 8.05859375 154 C6.90645894 139.55493112 6.18517321 125.09857633 5.5 110.625 C4.63539906 92.41359844 3.56658865 74.23730516 2.22155762 56.05499268 C1.75928636 49.68087052 1.36324001 43.30300913 0.99462891 36.92285156 C0.83654987 34.2167965 0.66711307 31.51146499 0.49682617 28.80615234 C-0.03102828 19.12981478 0 9.75700916 0 0 Z M12 12 C11.98227137 21.71145709 11.98227137 21.71145709 12.33544922 31.37207031 C12.40907684 32.6893512 12.48270447 34.00663208 12.55856323 35.36383057 C12.64051113 36.76860084 12.7225553 38.17336549 12.8046875 39.578125 C12.88984724 41.0761362 12.97473039 42.57416315 13.05935669 44.07220459 C13.23723019 47.20890204 13.41727272 50.34546411 13.59912109 53.48193359 C13.82607336 57.39641036 14.04946006 61.31107855 14.27138138 65.22584343 C15.12548311 80.28656707 16.01452114 95.34417554 16.9765625 110.3984375 C17.80191779 123.37356401 18.52435999 136.35318038 19.21875 149.3359375 C19.27099857 150.31146576 19.32324715 151.28699402 19.37707901 152.29208374 C19.86226612 161.35779661 20.34442034 170.42366902 20.82275391 179.48974609 C22.41402605 209.62007208 22.41402605 209.62007208 24.58447266 239.71289062 C25.14624547 246.641994 25.48948044 253.57897644 25.83343506 260.52154541 C26.44562422 272.52799312 27.25962555 284.25736741 30 296 C30.2791861 297.30847859 30.55781749 298.61707564 30.8359375 299.92578125 C37.37206541 329.35988084 52.54385268 355.52518584 71 379 C71.79148438 380.01835937 72.58296875 381.03671875 73.3984375 382.0859375 C79.62201406 389.75966782 86.54171032 396.74883096 93.5 403.75 C93.98473785 404.24009552 94.46947571 404.73019104 94.96890259 405.23513794 C101.63097101 411.95294529 108.57022462 418.13868582 116 424 C116.74588379 424.59989746 117.49176758 425.19979492 118.26025391 425.81787109 C129.09904956 434.52337994 140.25356558 442.56548485 152 450 C152.75941895 450.48146484 153.51883789 450.96292969 154.30126953 451.45898438 C164.17611527 457.66520167 174.31238648 463.38952647 184.6177063 468.84698486 C185.8232339 469.48659316 187.02646621 470.13054798 188.2272644 470.7789917 C189.91326019 471.68628118 191.61075582 472.57210056 193.30859375 473.45703125 C194.28626709 473.97241455 195.26394043 474.48779785 196.27124023 475.01879883 C200.32299001 476.47571771 202.65056003 475.58607642 206.49755859 473.9152832 C207.37234863 473.46499756 208.24713867 473.01471191 209.1484375 472.55078125 C210.14230469 472.0395874 211.13617188 471.52839355 212.16015625 471.00170898 C213.22105469 470.44427002 214.28195313 469.88683105 215.375 469.3125 C216.47972656 468.7337915 217.58445313 468.15508301 218.72265625 467.55883789 C236.26535516 458.25615669 253.05324274 447.83214157 269 436 C269.58426758 435.5673584 270.16853516 435.1347168 270.77050781 434.68896484 C291.67134775 419.11801855 311.85245597 401.52606633 328 381 C329.25876953 379.4840625 329.25876953 379.4840625 330.54296875 377.9375 C348.79701722 355.78281453 361.1690558 330.4953152 369 303 C369.33773438 301.86046875 369.67546875 300.7209375 370.0234375 299.546875 C373.94589151 285.33283372 374.35576501 270.21608803 375.0625 255.5625 C375.21683352 252.45946572 375.374608 249.35662502 375.53515625 246.25390625 C375.57295197 245.5166481 375.61074768 244.77938995 375.64968872 244.01979065 C375.89267885 239.46753159 376.2817304 234.95595175 376.77905273 230.42602539 C377.35025211 224.15419315 377.40984936 217.83734551 377.60546875 211.54492188 C377.64285156 210.44599609 377.68023437 209.34707031 377.71875 208.21484375 C377.74904297 207.23636475 377.77933594 206.25788574 377.81054688 205.24975586 C377.95499064 202.77206132 378.17814561 200.36600428 378.47265625 197.90576172 C379.14944432 192.04925683 379.42299658 186.17901773 379.71875 180.29296875 C379.78155151 179.09118484 379.84435303 177.88940094 379.90905762 176.65119934 C380.10852681 172.83009047 380.30457936 169.00881791 380.5 165.1875 C380.69568747 161.37690927 380.89219013 157.56636783 381.09094238 153.75593567 C381.21412873 151.39298403 381.33558072 149.02994106 381.45495605 146.66679382 C381.78392999 140.34218816 382.21519585 134.03900631 382.78248596 127.73112488 C383.16967788 122.86951007 383.28671853 117.99860934 383.4375 113.125 C383.75438889 104.0458099 384.2363593 94.99986436 384.875 85.9375 C386.51093361 61.3076107 387.70262938 36.65004169 389 12 C264.59 12 140.18 12 12 12 Z " fill="#BCBABD" transform="translate(12,11)"/>
<path d="M0 0 C1.51013627 0.72294307 2.99720626 1.49505274 4.46484375 2.30078125 C5.33616943 2.77700928 6.20749512 3.2532373 7.10522461 3.74389648 C8.03987549 4.26153564 8.97452637 4.7791748 9.9375 5.3125 C10.91533447 5.85011963 11.89316895 6.38773926 12.90063477 6.94165039 C21.20002804 11.52069501 29.43439059 16.21039463 37.65234375 20.93359375 C43.25224773 24.1508239 48.87478213 27.327296 54.5 30.5 C62.6979524 35.12615914 70.8812282 39.77688287 79.04638672 44.46069336 C83.78999349 47.17846921 88.5467814 49.87023653 93.3203125 52.53515625 C94.37154297 53.12361328 95.42277344 53.71207031 96.50585938 54.31835938 C98.54388493 55.45796916 100.5841617 56.5935648 102.62695312 57.72460938 C103.54669922 58.23958984 104.46644531 58.75457031 105.4140625 59.28515625 C106.2282666 59.73769775 107.0424707 60.19023926 107.88134766 60.65649414 C109.89367915 61.93257852 111.3998982 63.24568316 113 65 C106.27427577 69.08083723 99.4850259 73.02486084 92.625 76.875 C84.36381284 81.52658157 76.12186822 86.21047826 67.89547729 90.92327881 C57.2904061 96.99841345 46.65322676 103.01254596 35.98144531 108.9699707 C27.42274299 113.75168048 18.90374861 118.6006321 10.3984375 123.4765625 C9.64788086 123.90227539 8.89732422 124.32798828 8.12402344 124.76660156 C6.74519462 125.56727319 5.38222592 126.39615109 4.04003906 127.25683594 C-0.40426384 130.05456889 -0.40426384 130.05456889 -3.34814453 129.78491211 C-6.40026006 128.88152862 -8.88158282 127.60498485 -11.65625 126.04296875 C-13.297146 125.12535767 -13.297146 125.12535767 -14.97119141 124.18920898 C-16.14756451 123.52215529 -17.32383151 122.85491443 -18.5 122.1875 C-19.72154721 121.50085796 -20.9433932 120.81474721 -22.16552734 120.12915039 C-30.18428784 115.62333478 -38.17518083 111.06770927 -46.15112305 106.48657227 C-52.84220158 102.64602485 -59.57338732 98.88048642 -66.3125 95.125 C-76.82001141 89.26365052 -87.22623274 83.24126138 -97.60546875 77.15625 C-104.04022718 73.3842672 -110.5113574 69.67842063 -117 66 C-117 65.01 -117 64.02 -117 63 C-116.35264893 62.63874023 -115.70529785 62.27748047 -115.03833008 61.90527344 C-102.93399022 55.14707928 -90.8452849 48.3656232 -78.81762695 41.47167969 C-72.39202202 37.79015952 -65.94966043 34.13919689 -59.5 30.5 C-53.01792201 26.84195347 -46.54150799 23.17470285 -40.08178711 19.47729492 C-38.37258109 18.49928966 -36.66246881 17.52286637 -34.95141602 16.5480957 C-30.1893924 13.83423485 -25.44500773 11.09328895 -20.71484375 8.32421875 C-18.62248034 7.1118333 -16.53003423 5.89959058 -14.4375 4.6875 C-12.96410156 3.81448242 -12.96410156 3.81448242 -11.4609375 2.92382812 C-10.54441406 2.39595703 -9.62789063 1.86808594 -8.68359375 1.32421875 C-7.87462646 0.85072998 -7.06565918 0.37724121 -6.23217773 -0.1105957 C-3.56130527 -1.17479655 -2.63982416 -1.04866171 0 0 Z " fill="#FDFCFD" transform="translate(215,72)"/>
<path d="M0 0 C0.91507324 0.52142578 1.83014648 1.04285156 2.77294922 1.58007812 C5.55539337 3.1683208 8.30959558 4.7986472 11.0625 6.4375 C19.86881175 11.62866234 28.73978182 16.68161475 37.6875 21.625 C45.845379 26.13201933 53.97885878 30.67355367 62.0625 35.3125 C63.32163208 36.03143433 63.32163208 36.03143433 64.60620117 36.76489258 C68.79119356 39.15450068 72.96348995 41.56303017 77.12109375 44 C78.74714243 44.93793944 80.37343384 45.87545826 82 46.8125 C82.73613525 47.25182861 83.47227051 47.69115723 84.23071289 48.14379883 C84.91770264 48.53591553 85.60469238 48.92803223 86.3125 49.33203125 C86.90675781 49.67983643 87.50101562 50.0276416 88.11328125 50.38598633 C91.5849507 51.51580629 94.28956402 50.33680187 97.48168945 48.82348633 C98.35011475 48.33130615 99.21854004 47.83912598 100.11328125 47.33203125 C101.10118652 46.77588135 102.0890918 46.21973145 103.10693359 45.64672852 C104.69368896 44.7387854 104.69368896 44.7387854 106.3125 43.8125 C107.42189941 43.184646 108.53129883 42.55679199 109.67431641 41.90991211 C118.10319113 37.12471372 126.47097516 32.23621438 134.82861328 27.32788086 C143.50883341 22.24637954 152.28387684 17.34546476 161.09790039 12.50024414 C166.50086755 9.52518019 171.8670115 6.51201662 177.1640625 3.3515625 C178.12094971 2.78518066 179.07783691 2.21879883 180.0637207 1.63525391 C181.84413831 0.57608016 183.61674093 -0.49638836 185.37963867 -1.58447266 C191.12995155 -4.99036847 191.12995155 -4.99036847 195.17578125 -5.03515625 C198.49938597 -3.81696088 201.35423421 -2.28352354 204.375 -0.4375 C205.43460938 0.20316406 206.49421875 0.84382812 207.5859375 1.50390625 C208.38257813 1.99761719 209.17921875 2.49132812 210 3 C205.25907465 7.2434835 199.77542994 9.92929325 194.1875 12.875 C185.75262456 17.37931432 177.42373472 22.01704547 169.1875 26.875 C160.69402783 31.8805179 152.1328126 36.73880962 143.5 41.5 C134.63937291 46.38717473 125.85123441 51.37666089 117.125 56.5 C114.25541744 58.17844387 111.38513344 59.85567447 108.51416016 61.53173828 C106.93719687 62.45267994 105.36119786 63.37527688 103.78662109 64.30029297 C101.9701163 65.36136668 100.14442546 66.40335725 98.3125 67.4375 C97.38050781 67.97246094 96.44851562 68.50742188 95.48828125 69.05859375 C92.43551579 70.21356467 91.12310211 69.83448964 88 69 C85.74609375 67.9753418 85.74609375 67.9753418 83.4375 66.69921875 C82.13534546 65.98487671 82.13534546 65.98487671 80.80688477 65.25610352 C79.88061279 64.73846436 78.95434082 64.2208252 78 63.6875 C77.02667725 63.14988037 76.05335449 62.61226074 75.05053711 62.05834961 C66.76873229 57.46834505 58.54437197 52.77823372 50.3359375 48.05859375 C44.80510679 44.88076503 39.24654671 41.75311433 33.6875 38.625 C25.61752856 34.08157527 17.60911009 29.44247666 9.625 24.75 C2.02049881 20.28213347 -5.62244332 15.94678576 -13.47412109 11.92675781 C-23.27282494 6.88537714 -23.27282494 6.88537714 -27 4 C-27 3.34 -27 2.68 -27 2 C-24.77624778 0.47496774 -22.54176827 -0.9588391 -20.25 -2.375 C-19.32767578 -3.02275391 -19.32767578 -3.02275391 -18.38671875 -3.68359375 C-11.35281565 -7.8755158 -6.37271191 -3.86889279 0 0 Z " fill="#2F2583" transform="translate(121,150)"/>
<path d="M0 0 C0.83402344 0.50490967 1.66804688 1.00981934 2.52734375 1.5300293 C3.47762451 2.0967334 4.42790527 2.6634375 5.40698242 3.24731445 C6.41607666 3.86010254 7.4251709 4.47289062 8.46484375 5.10424805 C10.62606058 6.39199843 12.78885566 7.67710329 14.953125 8.9597168 C16.58822021 9.92917236 16.58822021 9.92917236 18.25634766 10.91821289 C22.99981017 13.68806005 27.81686681 16.3118579 32.65234375 18.91674805 C42.34006146 24.1519776 51.9100755 29.57074916 61.45410156 35.06274414 C64.91001588 37.04740074 68.37055094 39.02385199 71.83203125 40.9987793 C72.46424591 41.35956573 73.09646057 41.72035217 73.74783325 42.09207153 C76.27270551 43.53290783 78.79760804 44.97369069 81.32281494 46.41394043 C83.078792 47.4156513 84.83432557 48.41813946 86.58984375 49.4206543 C87.60304688 49.99887939 88.61625 50.57710449 89.66015625 51.17285156 C91.51564305 52.24385896 93.34874499 53.35471182 95.15576172 54.50561523 C97.43511375 56.02844267 97.43511375 56.02844267 100.28515625 55.7409668 C104.33181062 54.53293607 107.69729085 52.71417344 111.33984375 50.60424805 C112.11231445 50.1664502 112.88478516 49.72865234 113.68066406 49.27758789 C121.26170991 44.96155726 128.77382469 40.52428982 136.29638672 36.10742188 C143.83590021 31.69676479 151.46594739 27.48513653 159.1550293 23.34228516 C166.19750361 19.52911718 173.12179712 15.53441783 180.02734375 11.47924805 C182.97600357 9.75493632 185.92516368 8.03148386 188.87451172 6.30834961 C190.4797615 5.36849932 192.08329898 4.42570964 193.68408203 3.47827148 C195.47673432 2.42105491 197.28262072 1.38635949 199.08984375 0.35424805 C200.01023437 -0.18071289 200.930625 -0.71567383 201.87890625 -1.2668457 C205.22690273 -2.48567826 207.05042793 -2.1674564 210.46484375 -1.20825195 C213.45703125 0.2019043 213.45703125 0.2019043 216.33984375 1.85424805 C217.30664062 2.40209961 218.2734375 2.94995117 219.26953125 3.5144043 C219.99398437 3.93592773 220.7184375 4.35745117 221.46484375 4.79174805 C218.55052352 7.96051698 215.68113916 9.9887764 211.90625 12.04174805 C210.80893555 12.64390137 209.71162109 13.24605469 208.58105469 13.86645508 C208.00190308 14.18020081 207.42275146 14.49394653 206.8260498 14.81719971 C204.37792485 16.1436066 201.93817711 17.48508306 199.49795532 18.82595825 C198.25826282 19.50708537 197.01816949 20.18748345 195.77767944 20.86715698 C190.3879191 23.82282044 185.04373639 26.85306115 179.71484375 29.91674805 C172.48028127 34.069497 165.23004691 38.19282152 157.96484375 42.29174805 C150.64506631 46.42485863 143.32972823 50.56547392 136.02734375 54.72924805 C134.76857422 55.44407349 134.76857422 55.44407349 133.484375 56.17333984 C128.61440013 58.95005563 123.79000113 61.79036912 118.9921875 64.69018555 C117.90542725 65.34124268 116.81866699 65.9922998 115.69897461 66.66308594 C113.58171736 67.93388781 111.47150333 69.21651679 109.36938477 70.51220703 C108.41088623 71.08527588 107.4523877 71.65834473 106.46484375 72.2487793 C105.61921875 72.7641626 104.77359375 73.2795459 103.90234375 73.81054688 C100.87606972 75.02875554 99.53759678 74.80926189 96.46484375 73.79174805 C94.12255859 72.63110352 94.12255859 72.63110352 91.67578125 71.15893555 C90.74862305 70.60802246 89.82146484 70.05710937 88.86621094 69.48950195 C87.86750977 68.88799316 86.86880859 68.28648437 85.83984375 67.66674805 C77.0370104 62.44552552 68.17793976 57.35785795 59.21484375 52.41674805 C49.87918906 47.26184891 40.58989252 42.0355297 31.33984375 36.72924805 C21.24962055 30.94169732 11.12469388 25.21992912 0.96850586 19.54882812 C-6.56024572 15.34366251 -14.0626607 11.09611937 -21.53515625 6.79174805 C-20.19713891 2.77769604 -18.56477441 2.42545368 -14.84765625 0.54174805 C-13.29498047 -0.27036133 -13.29498047 -0.27036133 -11.7109375 -1.09887695 C-7.30146369 -2.63920975 -4.19135786 -1.99759535 0 0 Z " fill="#FAFAFB" transform="translate(112.53515625,163.208251953125)"/>
<path d="M0 0 C2.94494365 1.80334556 5.93722448 3.50549078 8.94433594 5.203125 C13.75565067 7.9205799 18.55303262 10.65983676 23.33886719 13.421875 C29.96790813 17.24333183 36.64075787 20.98288953 43.32714844 24.703125 C51.65186057 29.34257602 59.91567746 34.07489737 68.13964844 38.890625 C69.13222656 39.47030029 70.12480469 40.04997559 71.14746094 40.6472168 C78.72994258 45.07604079 78.72994258 45.07604079 82.10986328 47.07910156 C84.3428843 48.40200081 86.58378001 49.71037817 88.82714844 51.015625 C89.46467041 51.39952393 90.10219238 51.78342285 90.7590332 52.17895508 C93.88606131 54.08259748 93.88606131 54.08259748 97.42016602 54.34912109 C100.17040307 53.36607088 102.58641608 52.04855653 105.13574219 50.62109375 C106.78171387 49.70336182 106.78171387 49.70336182 108.4609375 48.76708984 C109.64560245 48.10010296 110.83017047 47.43294389 112.01464844 46.765625 C113.23941521 46.0799405 114.46435193 45.39455948 115.68945312 44.70947266 C124.63404464 39.70046608 133.54144362 34.62655996 142.43261719 29.5234375 C148.75922276 25.89474733 155.11379073 22.3158916 161.46704102 18.73413086 C166.98093308 15.62174193 172.48364411 12.49074489 177.97558594 9.33984375 C178.91648323 8.80041641 178.91648323 8.80041641 179.87638855 8.25009155 C182.94822963 6.48879883 186.01877607 4.72531949 189.0871582 2.95800781 C191.28310144 1.69812588 193.48500472 0.44855231 195.69384766 -0.78857422 C197.44757879 -1.7820087 199.18441761 -2.80724501 200.88623047 -3.88720703 C203.45308206 -5.42507019 205.5576974 -6.60156019 208.5925293 -6.06665039 C210.70999108 -5.25426225 212.60467864 -4.28947717 214.57714844 -3.171875 C215.25648438 -2.81996094 215.93582031 -2.46804687 216.63574219 -2.10546875 C218.29794235 -1.23925177 219.93986748 -0.33431804 221.57714844 0.578125 C218.89288397 3.69689271 215.51098534 5.44834452 211.95214844 7.390625 C210.50545925 8.19257377 209.05885015 8.99466701 207.61230469 9.796875 C206.81324707 10.23773438 206.01418945 10.67859375 205.19091797 11.1328125 C200.24674883 13.866745 195.31916878 16.63039511 190.38964844 19.390625 C189.31650391 19.99100586 188.24335938 20.59138672 187.13769531 21.20996094 C179.5270565 25.47237577 171.94348608 29.7798517 164.37548828 34.11743164 C158.10204708 37.71182533 151.81215162 41.276077 145.51464844 44.828125 C134.17784887 51.22454916 122.87566157 57.68082499 111.57714844 64.14453125 C110.52527344 64.74152832 109.47339844 65.33852539 108.38964844 65.95361328 C106.70498531 66.92668172 105.0329636 67.92297785 103.38964844 68.96435547 C99.1496388 71.63377964 99.1496388 71.63377964 96.23657227 71.35058594 C93.21348314 70.47249414 90.77280908 69.23182112 88.02636719 67.69140625 C86.94806641 67.09005859 85.86976563 66.48871094 84.75878906 65.86914062 C83.59392874 65.2098947 82.42921911 64.55038246 81.26464844 63.890625 C80.04936115 63.2086145 78.83386317 62.52697929 77.61816406 61.84570312 C68.90131085 56.94777666 60.26212635 51.9200596 51.64257812 46.85302734 C41.91847097 41.1526335 32.06182799 35.70031031 22.19824219 30.24609375 C13.19610769 25.26705447 4.23887143 20.2104959 -4.70068359 15.12011719 C-7.48477136 13.54305007 -10.27916271 11.98546227 -13.07519531 10.4296875 C-14.83712962 9.43788283 -16.59885817 8.44571254 -18.36035156 7.453125 C-19.17826172 7.00356445 -19.99617188 6.55400391 -20.83886719 6.09082031 C-21.57685547 5.67155273 -22.31484375 5.25228516 -23.07519531 4.8203125 C-23.72480225 4.4579248 -24.37440918 4.09553711 -25.04370117 3.72216797 C-25.4988208 3.34463379 -25.95394043 2.96709961 -26.42285156 2.578125 C-26.42285156 1.588125 -26.42285156 0.598125 -26.42285156 -0.421875 C-16.14210157 -7.60431678 -10.12792913 -6.28838585 0 0 Z " fill="#2F2583" transform="translate(115.4228515625,182.421875)"/>
<path d="M0 0 C2.53173828 1.14477539 2.53173828 1.14477539 5.0703125 2.59765625 C6.51664063 3.4165332 6.51664063 3.4165332 7.9921875 4.25195312 C9.02601562 4.84943359 10.05984375 5.44691406 11.125 6.0625 C12.218125 6.68447266 13.31125 7.30644531 14.4375 7.94726562 C17.36751596 9.61657744 20.29282844 11.29358058 23.21594238 12.97491455 C26.13827706 14.65403227 29.06533461 16.3248682 31.9921875 17.99609375 C35.50847055 20.00441198 39.02431525 22.01347359 42.5378418 24.02661133 C51.33505049 29.0649512 60.17114116 34.03151411 69.0234375 38.97241211 C76.71513739 43.26929562 84.37485703 47.61963425 92.01538086 52.00683594 C93.57806337 52.90362708 95.14315986 53.7962283 96.7109375 54.68408203 C98.29267147 55.59337662 99.85974999 56.52847496 101.4140625 57.48388672 C102.19523437 57.95197754 102.97640625 58.42006836 103.78125 58.90234375 C104.47283203 59.32894287 105.16441406 59.75554199 105.87695312 60.19506836 C108.6949234 61.26347314 110.1431831 60.89996168 113 60 C115.47775907 58.8034258 115.47775907 58.8034258 117.96484375 57.26171875 C118.91834717 56.69501465 119.87185059 56.12831055 120.85424805 55.54443359 C121.87172119 54.93164551 122.88919434 54.31885742 123.9375 53.6875 C131.94647247 48.93564318 139.99019647 44.29449929 148.1875 39.875 C157.88542152 34.63378994 167.46572025 29.20928448 177.02001953 23.71142578 C180.38371308 21.77963062 183.75189559 19.85576449 187.12109375 17.93359375 C187.73674194 17.58227386 188.35239014 17.23095398 188.98669434 16.86898804 C191.43430039 15.47229018 193.88192607 14.07562715 196.32989502 12.67956543 C198.03404714 11.70750198 199.73772999 10.73461597 201.44140625 9.76171875 C202.52905273 9.14184082 203.61669922 8.52196289 204.73730469 7.88330078 C206.96267703 6.59876604 209.17652977 5.29411613 211.37988281 3.97216797 C212.98041504 3.01334717 212.98041504 3.01334717 214.61328125 2.03515625 C216.03894409 1.1690271 216.03894409 1.1690271 217.4934082 0.28540039 C220 -1 220 -1 223.625 -1.25 C228.28169308 0.47470114 232.64324526 2.62438524 237 5 C234.51988867 7.78894946 231.80185621 9.36993626 228.5390625 11.15234375 C226.88886108 12.06004517 226.88886108 12.06004517 225.20532227 12.98608398 C224.33050705 13.46282059 224.33050705 13.46282059 223.4380188 13.94918823 C220.34995437 15.63255214 217.27147776 17.33332023 214.19140625 19.03125 C213.57251022 19.37179916 212.9536142 19.71234833 212.31596375 20.06321716 C207.03569366 22.97125472 201.79065103 25.93700045 196.5625 28.9375 C195.7360498 29.41131104 194.90959961 29.88512207 194.05810547 30.37329102 C192.31921766 31.37092958 190.58061893 32.36907216 188.84228516 33.36767578 C183.31462875 36.54220857 177.78288584 39.70959379 172.25 42.875 C171.65734344 43.21422485 171.06468689 43.55344971 170.45407104 43.9029541 C161.02507272 49.29809381 151.55797092 54.62141881 142.05664062 59.88842773 C136.887753 62.76784429 131.77768017 65.71489046 126.7265625 68.796875 C125.72093262 69.40764893 124.71530273 70.01842285 123.67919922 70.64770508 C121.77436521 71.8115939 119.87704502 72.98790159 117.98876953 74.1784668 C116.71815674 74.95444214 116.71815674 74.95444214 115.421875 75.74609375 C114.68549805 76.20685303 113.94912109 76.6676123 113.19042969 77.14233398 C110.3480207 78.25528347 108.88788531 77.90358369 106 77 C103.94897461 76.03881836 103.94897461 76.03881836 101.90234375 74.83984375 C100.72236816 74.15656006 100.72236816 74.15656006 99.51855469 73.45947266 C98.66680664 72.95722168 97.81505859 72.4549707 96.9375 71.9375 C95.04576343 70.83951545 93.15382575 69.74187734 91.26171875 68.64453125 C90.25028809 68.05494629 89.23885742 67.46536133 88.19677734 66.85791016 C83.1540002 63.92713774 78.09060598 61.03249529 73.02603149 58.13961792 C71.23657833 57.11733242 69.44774839 56.09396209 67.65893555 55.07055664 C58.85827376 50.03967721 50.01532985 45.08722297 41.15991211 40.15332031 C32.99187665 35.58831409 24.91369709 30.87986082 16.8515625 26.13085938 C8.99109717 21.52210049 1.01950195 17.14241973 -7.04760742 12.90576172 C-11.24642338 10.66739471 -14.89648367 8.71375831 -18 5 C-16.13591458 3.95936979 -14.25814929 2.94322085 -12.375 1.9375 C-11.33085938 1.36902344 -10.28671875 0.80054688 -9.2109375 0.21484375 C-5.45400871 -1.20657335 -3.86004549 -0.9145078 0 0 Z " fill="#FCF9F9" transform="translate(103,192)"/>
<path d="M0 0 C4.05606885 0.09315932 8.11265745 0.13340112 12.16949463 0.17852783 C20.08626958 0.27417602 28.00053757 0.42714388 35.91558838 0.61798096 C33.61723411 2.99236787 31.47403782 4.58392459 28.57574463 6.19219971 C27.69225342 6.68647461 26.80876221 7.18074951 25.89849854 7.69000244 C24.93476318 8.22311035 23.97102783 8.75621826 22.97808838 9.30548096 C20.88260495 10.47658447 18.78757254 11.64849528 16.69293213 12.82110596 C15.58675537 13.43921143 14.48057861 14.05731689 13.34088135 14.69415283 C8.14469503 17.61260958 2.97555407 20.57802708 -2.19406128 23.54318237 C-12.6330146 29.52915435 -23.10691157 35.44916784 -33.61737061 41.30889893 C-39.26929153 44.46511383 -44.90356481 47.64961837 -50.51800537 50.87188721 C-51.14466095 51.23132416 -51.77131653 51.59076111 -52.41696167 51.96109009 C-55.45427947 53.7040353 -58.48956308 55.45038957 -61.52191162 57.20196533 C-67.94504836 60.8943299 -74.40850172 64.40309512 -81.08441162 67.61798096 C-81.18363787 62.60094917 -81.25604749 57.58449444 -81.30413818 52.56671143 C-81.32419531 50.86153202 -81.35144819 49.1564209 -81.38616943 47.45147705 C-81.43495023 44.99378571 -81.45743881 42.53700729 -81.47503662 40.07891846 C-81.50600433 38.94418594 -81.50600433 38.94418594 -81.53759766 37.78652954 C-81.53976699 32.61461376 -80.5865347 29.65583854 -77.08441162 25.61798096 C-74.31390381 23.61090088 -74.31390381 23.61090088 -71.13128662 21.84844971 C-70.55340393 21.52314774 -69.97552124 21.19784576 -69.38012695 20.86268616 C-67.53871199 19.83010677 -65.68718134 18.81751638 -63.83441162 17.80548096 C-62.03891122 16.80568047 -60.24568005 15.80195966 -58.45355225 14.79612732 C-57.22107196 14.11289872 -55.98184939 13.44171555 -54.73675537 12.78175354 C-51.56484677 11.08803685 -48.66416808 9.35500981 -45.84222412 7.1206665 C-32.63462767 -2.72905831 -15.64442621 -0.39789154 0 0 Z " fill="#FBFBFC" transform="translate(299.08441162109375,323.38201904296875)"/>
<path d="M0 0 C8.7635287 -0.28124242 17.5254464 -0.49282557 26.29254436 -0.62174606 C30.36619451 -0.68370632 34.43670322 -0.76733267 38.50854492 -0.90527344 C57.91657589 -1.54524478 72.80947087 -1.55513688 89.02114868 10.55712891 C91.71870426 12.52404018 94.51396542 14.03386119 97.46875 15.5859375 C98.75458984 16.29943359 98.75458984 16.29943359 100.06640625 17.02734375 C101.74658855 17.95778178 103.43183731 18.87910871 105.12109375 19.79296875 C105.95769531 20.26089844 106.79429687 20.72882813 107.65625 21.2109375 C108.73616211 21.80334229 108.73616211 21.80334229 109.83789062 22.40771484 C113.32076605 24.97267798 116.46213434 27.59455054 117.42996216 31.92288208 C117.57658698 34.12010915 117.56335658 36.26018298 117.48828125 38.4609375 C117.48120651 39.25150543 117.47413177 40.04207336 117.46684265 40.8565979 C117.43901463 43.36372433 117.37630474 45.86855712 117.3125 48.375 C117.28740184 50.08199883 117.26459133 51.78903292 117.24414062 53.49609375 C117.18922691 57.66493648 117.10304076 61.83208038 117 66 C112.94323545 64.74885179 109.37517495 63.25475619 105.68359375 61.1640625 C104.68312012 60.60066162 103.68264648 60.03726074 102.65185547 59.45678711 C101.59111816 58.85229736 100.53038086 58.24780762 99.4375 57.625 C98.32777832 56.99795166 97.21805664 56.37090332 96.07470703 55.72485352 C92.71288569 53.82280202 89.35562298 51.91296217 86 50 C85.0601123 49.46455566 84.12022461 48.92911133 83.15185547 48.37744141 C78.83648099 45.91706702 74.52476843 43.4503746 70.21484375 40.98046875 C64.80153811 37.88146607 59.37043544 34.81442082 53.9375 31.75 C41.73436916 24.86429977 29.57088357 17.91005485 17.40966797 10.95068359 C11.60780223 7.63141485 5.80385658 4.3157861 0 1 C0 0.67 0 0.34 0 0 Z " fill="#FCFCFD" transform="translate(89,324)"/>
<path d="M0 0 C1.26446664 0.74753038 2.52395506 1.5035715 3.77734375 2.26953125 C7.45994638 3.7216144 11.09453998 2.26227999 14.69921875 1.02734375 C14.36921875 2.01734375 14.03921875 3.00734375 13.69921875 4.02734375 C12.70921875 4.35734375 11.71921875 4.68734375 10.69921875 5.02734375 C10.98796875 5.58421875 11.27671875 6.14109375 11.57421875 6.71484375 C12.74054405 9.1122902 13.73320685 11.54331314 14.69921875 14.02734375 C17.6632638 11.21930107 20.14420894 8.84418601 21.69921875 5.02734375 C22.35921875 5.02734375 23.01921875 5.02734375 23.69921875 5.02734375 C24.02921875 4.36734375 24.35921875 3.70734375 24.69921875 3.02734375 C24.1656665 7.56253784 22.33580576 10.35210125 19.69921875 14.02734375 C16.08699483 19.44567963 16.58229514 27.6796195 17.69921875 34.02734375 C19.23681028 37.10252681 20.84686914 39.33243256 23.16796875 41.8515625 C25.17885221 44.70886375 25.04342033 46.60923087 24.69921875 50.02734375 C23.17649884 51.55006366 21.81986716 51.23316357 19.69921875 51.27734375 C16.06088682 51.27155023 13.32996488 50.66151128 9.94921875 49.33984375 C6.44630413 47.95908923 6.44630413 47.95908923 2.88671875 49.27734375 C2.16484375 49.85484375 1.44296875 50.43234375 0.69921875 51.02734375 C-5.45259042 53.12863587 -13.73817428 53.25936633 -19.55078125 50.46484375 C-20.45828125 49.99046875 -21.36578125 49.51609375 -22.30078125 49.02734375 C-26.12256662 49.00771129 -29.8585096 49.30620792 -33.30078125 51.02734375 C-35.17578125 51.1953125 -35.17578125 51.1953125 -37.30078125 51.21484375 C-38.00203125 51.22902344 -38.70328125 51.24320313 -39.42578125 51.2578125 C-41.30078125 51.02734375 -41.30078125 51.02734375 -43.30078125 49.02734375 C-43.38097329 45.73946992 -42.90217299 43.68916241 -40.66796875 41.23046875 C-40.03117188 40.5653125 -39.394375 39.90015625 -38.73828125 39.21484375 C-34.19321285 33.67230692 -34.15967942 27.96500399 -34.59375 21.0703125 C-35.20383612 16.22866014 -37.32704412 13.3139295 -40.66796875 9.82421875 C-42.90217299 7.36552509 -43.38097329 5.31521758 -43.30078125 2.02734375 C-41.30078125 0.02734375 -41.30078125 0.02734375 -37.48828125 -0.22265625 C-33.99404195 -0.14710513 -31.5262708 0.66924289 -28.30078125 2.02734375 C-24.56663501 2.43322921 -22.638478 2.19274624 -19.23828125 0.52734375 C-13.57407805 -2.10336396 -5.75912086 -2.43467079 0 0 Z " fill="#ECEBF3" transform="translate(221.30078125,106.97265625)"/>
<path d="M0 0 C16.54987424 -1.19766402 28.79955083 -1.15305377 42.61962891 8.40380859 C47.22302441 11.49068037 52.07467115 14.17163229 56.875 16.9375 C58.91021407 18.13401625 60.94537061 19.33063033 62.98046875 20.52734375 C66.8839802 22.80224201 70.81493618 25.00162557 74.80078125 27.12890625 C75.71037598 27.61560791 76.6199707 28.10230957 77.55712891 28.60375977 C79.25516052 29.50510029 80.95893823 30.39573582 82.66943359 31.27319336 C88.20761863 34.21312362 92.1252017 37.25040339 95 43 C95.46148437 42.41629639 95.92296875 41.83259277 96.3984375 41.23120117 C101.34831974 35.28168239 106.11488979 31.74007662 113 28.3125 C114.94972727 27.29643559 116.8975777 26.27676337 118.84375 25.25390625 C119.85050781 24.72812988 120.85726562 24.20235352 121.89453125 23.66064453 C127.18022999 20.83412544 132.33359029 17.78731643 137.5 14.75 C138.52440186 14.15985107 139.54880371 13.56970215 140.60424805 12.96166992 C146.79369804 9.38529127 146.79369804 9.38529127 152.67578125 5.3359375 C163.88465625 -2.56471412 176.82746243 -0.74115122 190 0 C187.63728605 2.61712286 185.16564147 4.17321749 182.08203125 5.86328125 C181.08768066 6.41298584 180.09333008 6.96269043 179.06884766 7.52905273 C177.99425293 8.11759033 176.9196582 8.70612793 175.8125 9.3125 C173.52372361 10.57889472 171.23598749 11.8471711 168.94921875 13.1171875 C168.07499268 13.60248177 168.07499268 13.60248177 167.18310547 14.09757996 C161.4458389 17.29121291 155.78283331 20.60587063 150.125 23.9375 C140.30527286 29.7079056 130.38946944 35.28937797 120.41210938 40.78100586 C115.69068436 43.38131617 110.978683 45.97917215 106.359375 48.7578125 C105.70984863 49.14598145 105.06032227 49.53415039 104.39111328 49.93408203 C102.78714107 50.90214157 101.19371376 51.88761937 99.6015625 52.875 C96.43686102 54.24351956 95.27867078 53.88950966 92 53 C89.79370117 52.00708008 89.79370117 52.00708008 87.54296875 50.76953125 C86.69065674 50.30377686 85.83834473 49.83802246 84.96020508 49.3581543 C84.0452124 48.84808838 83.13021973 48.33802246 82.1875 47.8125 C80.73476685 47.01162964 80.73476685 47.01162964 79.25268555 46.19458008 C71.20450651 41.73155183 63.25953616 37.09809261 55.328125 32.43164062 C47.67729482 27.94243243 39.95176017 23.60215554 32.1875 19.3125 C24.03144449 14.80320972 15.88975477 10.2743202 7.8125 5.625 C7.01030029 5.16649658 6.20810059 4.70799316 5.3815918 4.2355957 C3.57017289 3.18681527 1.78188305 2.09821294 0 1 C0 0.67 0 0.34 0 0 Z " fill="#FEF9F8" transform="translate(117,244)"/>
<path d="M0 0 C11.33045036 -0.93368313 18.123552 0.55554621 27.9375 6.625 C29.10195791 7.31206368 30.26826242 7.99600613 31.4362793 8.67700195 C33.81899609 10.07308349 36.18987636 11.48643643 38.55175781 12.91748047 C42.78236889 15.48002965 47.05695959 17.96556889 51.33227539 20.45263672 C53.32087444 21.61024996 55.30704415 22.7720464 57.29077148 23.93798828 C63.79401512 27.7549339 70.36394464 31.41967764 77 35 C85.05872576 39.37065977 93.0910715 43.78426566 101.0625 48.3125 C102.58907227 49.15651367 102.58907227 49.15651367 104.14648438 50.01757812 C109.95267327 53.35054254 113.58491163 56.20536619 117 62 C117.37044434 61.50081055 117.74088867 61.00162109 118.12255859 60.48730469 C123.08789691 54.27512455 128.6514151 50.92277962 135.625 47.25 C137.88199877 46.02433635 140.13850227 44.79776028 142.39453125 43.5703125 C143.51424316 42.96735352 144.63395508 42.36439453 145.78759766 41.74316406 C150.33712183 39.27443002 154.82715842 36.70797766 159.3125 34.125 C161.01678865 33.14819593 162.72121965 32.17164019 164.42578125 31.1953125 C165.75343506 30.43395996 165.75343506 30.43395996 167.10791016 29.65722656 C169.74624364 28.14540758 172.38564377 26.63547135 175.02584839 25.12692261 C176.20903814 24.45084629 177.39208137 23.77451351 178.57498169 23.09793091 C181.58237259 21.37834992 184.59223801 19.66340347 187.60742188 17.95751953 C193.10993392 14.83849927 198.56842212 11.67826565 203.92578125 8.3125 C214.22587035 1.92532965 221.66966606 -2.04558535 234 0 C231.63728605 2.61712286 229.16564147 4.17321749 226.08203125 5.86328125 C224.58990112 6.68820068 224.58990112 6.68820068 223.06762695 7.52978516 C221.45633911 8.412229 221.45633911 8.412229 219.8125 9.3125 C217.53021618 10.57495576 215.24899168 11.83932821 212.96875 13.10546875 C212.38696487 13.42837891 211.80517975 13.75128906 211.20576477 14.08398438 C205.35473841 17.34104033 199.58196849 20.72631203 193.8125 24.125 C185.39435235 29.07390859 176.8923238 33.82364841 168.29711914 38.45703125 C161.36630564 42.21088481 154.54737008 46.13522759 147.75 50.125 C145.74872014 51.29430886 143.74741845 52.46358038 141.74609375 53.6328125 C138.9163542 55.28732599 136.09001597 56.94637415 133.27392578 58.62402344 C130.79588331 60.09890543 128.30605255 61.55154693 125.8125 63 C125.08836914 63.43973145 124.36423828 63.87946289 123.61816406 64.33251953 C121.58203125 65.5 121.58203125 65.5 118 67 C114.18822488 65.84967545 110.81156849 63.87884567 107.34375 61.9453125 C106.24949707 61.3366333 105.15524414 60.7279541 104.02783203 60.10083008 C102.8517996 59.44237796 101.67585769 58.78376413 100.5 58.125 C99.28115532 57.44478359 98.06224178 56.76469056 96.84326172 56.0847168 C86.18545673 50.13214904 75.5840849 44.08245252 65 38 C61.5845356 36.03956292 58.16784876 34.08127717 54.75 32.125 C53.8950293 31.63563965 53.04005859 31.1462793 52.15917969 30.64208984 C45.25444711 26.69853843 38.31762245 22.8138635 31.375 18.9375 C23.54070159 14.55863819 15.71835109 10.16078311 7.9375 5.6875 C7.12780762 5.22529053 6.31811523 4.76308105 5.48388672 4.28686523 C3.63868411 3.22053494 1.81628056 2.1148802 0 1 C0 0.67 0 0.34 0 0 Z " fill="#C3B9B8" transform="translate(95,244)"/>
<path d="M0 0 C2.18939209 1.82189941 2.18939209 1.82189941 4.58496094 4.22851562 C5.48559265 5.12614624 6.38622437 6.02377686 7.31414795 6.9486084 C8.28779268 7.93425614 9.26119605 8.92014236 10.234375 9.90625 C11.23698548 10.91191852 12.24018815 11.91699697 13.24395752 12.92150879 C15.34319105 15.02534074 17.43742175 17.13398342 19.52783203 19.24658203 C22.213483 21.96058783 24.90780378 24.66577301 27.60543442 27.36786652 C29.67505804 29.44163631 31.74183459 31.5182224 33.80756378 33.59587097 C34.80071054 34.59473117 35.79433795 35.59311371 36.78844452 36.59101868 C38.17247444 37.98188616 39.55264931 39.37658659 40.93261719 40.77148438 C41.71997253 41.56566772 42.50732788 42.35985107 43.31854248 43.17810059 C45 45 45 45 45 46 C2.01583975 50.06691473 2.01583975 50.06691473 -9.10546875 41.01953125 C-16.0119683 34.85888672 -24.76459053 25.88299563 -26.4375 16.5625 C-25.82093172 12.95117148 -23.71120282 11.26061882 -21 9 C-18.22729573 7.06186331 -15.35595924 5.33348859 -12.4375 3.625 C-11.68275391 3.16222656 -10.92800781 2.69945312 -10.15039062 2.22265625 C-9.41884766 1.79082031 -8.68730469 1.35898437 -7.93359375 0.9140625 C-7.27415771 0.5217041 -6.61472168 0.1293457 -5.93530273 -0.27490234 C-3.41941086 -1.21752867 -2.51255453 -0.93930681 0 0 Z " fill="#FBFBFD" transform="translate(245,382)"/>
<path d="M0 0 C5.04600043 1.59422424 9.18923964 3.65201747 13.6875 6.375 C14.35072266 6.76171875 15.01394531 7.1484375 15.69726562 7.546875 C19.16770158 9.62983555 21.94054856 11.39780537 24 15 C24.75 18.125 24.75 18.125 24 22 C22.20771003 24.58729523 20.23106559 26.70294005 17.9855957 28.91040039 C15.81021076 31.0835351 13.91112915 33.35504038 12.02929688 35.78540039 C7.08948494 41.83497957 2.49993309 47.02432525 -5.52905273 48.21630859 C-11.68698539 48.65191063 -17.78542068 48.31625808 -23.9375 47.9375 C-26.08505058 47.86209329 -28.23285869 47.79368131 -30.38085938 47.73242188 C-35.59371053 47.56873151 -40.79394635 47.31100437 -46 47 C-41.18562562 41.20164104 -36.00751568 35.87718215 -30.6640625 30.56640625 C-29.78471039 29.68846909 -28.90535828 28.81053192 -27.99935913 27.9059906 C-25.21025942 25.12245588 -22.41768982 22.34243231 -19.625 19.5625 C-17.7247458 17.66783335 -15.82525347 15.7724037 -13.92578125 13.87695312 C-9.28649396 9.24864839 -4.64435833 4.62321579 0 0 Z " fill="#FCFCFD" transform="translate(181,381)"/>
<path d="M0 0 C4.78144688 0.08757229 8.33297072 1.96698255 12.375 4.375 C12.375 4.705 12.375 5.035 12.375 5.375 C7.13619922 4.82354729 2.40149303 3.94577907 -2.625 2.375 C-0.70276117 7.5346937 1.17686938 10.63072134 5.375 14.375 C5.74625 13.2303125 5.74625 13.2303125 6.125 12.0625 C7.50098544 9.1041313 8.74802053 8.1957317 11.375 6.375 C13.67465163 7.61188835 15.96394675 8.86342071 18.25 10.125 C18.90097656 10.47304687 19.55195313 10.82109375 20.22265625 11.1796875 C23.83539342 13.19090201 25.767877 14.57258012 27.375 18.375 C29.70663378 19.04758667 32.0402039 19.71347444 34.375 20.375 C36.58078622 21.88877486 38.40427782 23.548477 40.375 25.375 C37.211063 29.83798418 33.71411872 32.4691828 29.1875 35.375 C28.52129639 35.80852783 27.85509277 36.24205566 27.16870117 36.6887207 C25.2454725 37.93066493 23.31308586 39.15640247 21.375 40.375 C20.4365625 40.96667969 19.498125 41.55835938 18.53125 42.16796875 C13.03759404 45.43669404 13.03759404 45.43669404 10.27734375 45.1796875 C7.16992027 43.86525375 6.04950896 41.18578289 4.375 38.375 C0.54830957 41.79888092 -1.34778474 44.38224943 -2.625 49.375 C-1.86574219 49.1584375 -1.10648438 48.941875 -0.32421875 48.71875 C0.66964844 48.4403125 1.66351563 48.161875 2.6875 47.875 C3.67363281 47.5965625 4.65976563 47.318125 5.67578125 47.03125 C8.375 46.375 8.375 46.375 11.375 46.375 C11.375 47.035 11.375 47.695 11.375 48.375 C6.04053 51.042235 2.34996094 51.88135262 -3.625 51.375 C-5.625 49.375 -5.625 49.375 -5.6875 46.8125 C-4.56688811 43.18699093 -3.60742666 42.22076348 -1.0625 39.5625 C3.4825684 34.01996317 3.51610183 28.31266024 3.08203125 21.41796875 C2.47194513 16.57631639 0.34873713 13.66158575 -2.9921875 10.171875 C-5.22639174 7.71318134 -5.70519204 5.66287383 -5.625 2.375 C-3.625 0.375 -3.625 0.375 0 0 Z " fill="#2F2583" transform="translate(183.625,106.625)"/>
<path d="M0 0 C3.40219909 1.62840299 6.16821057 3.48285384 9 6 C9 6.66 9 7.32 9 8 C10.32 7.67 11.64 7.34 13 7 C19.83522232 14.84655623 19.83522232 14.84655623 20.5 19.5 C20 22 20 22 19 23 C14.05011825 23.57453985 9.88511258 23.12454904 5.25 21.3125 C1.74708538 19.93174548 1.74708538 19.93174548 -1.8125 21.25 C-2.534375 21.8275 -3.25625 22.405 -4 23 C-9.95874301 25.01290871 -17.70898086 25.11982672 -23.62890625 23.10546875 C-25.8125 22 -25.8125 22 -29 20 C-26.55177819 17.25700901 -23.89569769 15.70439643 -20.6875 13.9375 C-13.42195908 9.79338486 -6.73280516 4.95000616 0 0 Z " fill="#2E2584" transform="translate(226,135)"/>
<path d="M0 0 C0.60328125 0.36867188 1.2065625 0.73734375 1.828125 1.1171875 C5.51072763 2.56927065 9.14532123 1.10993624 12.75 -0.125 C12.42 0.865 12.09 1.855 11.75 2.875 C10.76 3.205 9.77 3.535 8.75 3.875 C9.03875 4.431875 9.3275 4.98875 9.625 5.5625 C10.7913253 7.95994645 11.7839881 10.39096939 12.75 12.875 C15.71404505 10.06695732 18.19499019 7.69184226 19.75 3.875 C20.41 3.875 21.07 3.875 21.75 3.875 C22.08 3.215 22.41 2.555 22.75 1.875 C22.21744565 6.40171196 20.53440128 9.2950555 17.75 12.875 C16.42835734 13.56455269 15.09360103 14.22927677 13.75 14.875 C11.70711109 16.37923656 9.73200739 17.951873 7.75 19.53515625 C5.62350786 20.95973985 4.30497861 21.68647731 1.75 21.875 C-0.35546875 20.80078125 -0.35546875 20.80078125 -2.4375 19.1875 C-3.13230469 18.66800781 -3.82710937 18.14851563 -4.54296875 17.61328125 C-6.42872868 15.6929994 -6.86650889 14.50220032 -7.25 11.875 C-8.36375 11.66875 -9.4775 11.4625 -10.625 11.25 C-16.11102465 9.91290439 -20.56350103 6.92890712 -25.25 3.875 C-24.25 0.875 -24.25 0.875 -21.5 -0.8125 C-14.79553744 -3.41134322 -6.26602012 -3.70436059 0 0 Z " fill="#2F2584" transform="translate(223.25,108.125)"/>
<path d="M0 0 C1.65 0.33 3.3 0.66 5 1 C5.33 1.99 5.66 2.98 6 4 C6.66 4 7.32 4 8 4 C7.67 4.99 7.34 5.98 7 7 C6.01 7 5.02 7 4 7 C3.731875 7.7425 3.46375 8.485 3.1875 9.25 C2.04723249 11.89061949 0.90619694 13.85552844 -1 16 C-1.66 16 -2.32 16 -3 16 C-4.32421875 14.57421875 -4.32421875 14.57421875 -5.6875 12.6875 C-6.14511719 12.07261719 -6.60273438 11.45773438 -7.07421875 10.82421875 C-7.53248047 9.92123047 -7.53248047 9.92123047 -8 9 C-7.67 8.01 -7.34 7.02 -7 6 C-6.01 5.67 -5.02 5.34 -4 5 C-2.61423077 3.37667033 -1.27358732 1.71275535 0 0 Z " fill="#EAE9F1" transform="translate(239,105)"/>
<path d="M0 0 C3.47000311 1.1566677 3.84701459 1.85726716 5.6875 4.875 C6.12449219 5.57367188 6.56148437 6.27234375 7.01171875 6.9921875 C8 9 8 9 8 12 C6.58249437 11.88490339 5.16598831 11.75746342 3.75 11.625 C2.56664062 11.52058594 2.56664062 11.52058594 1.359375 11.4140625 C-1.085877 10.98492887 -2.84836903 10.21399362 -5 9 C-3.50163895 5.88801935 -1.80066242 2.9465385 0 0 Z " fill="#F1F1F6" transform="translate(236,144)"/>
<path d="M0 0 C5.57142857 5.14285714 5.57142857 5.14285714 6 9 C-1.28571429 12.42857143 -1.28571429 12.42857143 -6 12 C-5.59791618 6.37082652 -3.71069698 3.99613521 0 0 Z " fill="#F2F1F6" transform="translate(187,144)"/>
<path d="M0 0 C4.3177458 0.50797009 8.03302114 1.19682779 12 3 C11.35455571 6.48539917 9.89865603 9.02819057 8 12 C3.78456242 10.49448658 2.13950875 7.82055134 0 4 C0 2.68 0 1.36 0 0 Z " fill="#F2F1F6" transform="translate(181,109)"/>
<path d="M0 0 C2 2 2 2 2.265625 4.53125 C2.26046875 5.5109375 2.2553125 6.490625 2.25 7.5 C2.25515625 8.4796875 2.2603125 9.459375 2.265625 10.46875 C2 13 2 13 0 15 C-2.64 12.69 -5.28 10.38 -8 8 C-5.33333333 5.33333333 -2.66666667 2.66666667 0 0 Z " fill="#342A85" transform="translate(237,125)"/>
<path d="M0 0 C0.52078125 0.40992188 1.0415625 0.81984375 1.578125 1.2421875 C-0.49391185 2.63751867 -2.57653196 4.00768227 -4.671875 5.3671875 C-5.55166016 5.96466797 -5.55166016 5.96466797 -6.44921875 6.57421875 C-8.1875 7.6875 -8.1875 7.6875 -11.421875 9.2421875 C-13.84375 8.484375 -13.84375 8.484375 -15.421875 7.2421875 C-13.34983815 5.84685633 -11.26721804 4.47669273 -9.171875 3.1171875 C-8.58535156 2.71886719 -7.99882812 2.32054687 -7.39453125 1.91015625 C-2.96392641 -0.92742213 -2.96392641 -0.92742213 0 0 Z " fill="#251B83" transform="translate(235.421875,382.7578125)"/>
<path d="M0 0 C2 1 2 1 3 3 C1.54462432 3.83848804 0.08559627 4.67063934 -1.375 5.5 C-2.59316406 6.19609375 -2.59316406 6.19609375 -3.8359375 6.90625 C-6 8 -6 8 -8 8 C-8 7.34 -8 6.68 -8 6 C-8.66 6 -9.32 6 -10 6 C-8.59575991 3.19151983 -6.89135802 3.07585415 -4 2 C-3.278125 1.608125 -2.55625 1.21625 -1.8125 0.8125 C-1.214375 0.544375 -0.61625 0.27625 0 0 Z " fill="#DAD8E6" transform="translate(203,147)"/>
<path d="M0 0 C6.07328688 -0.50610724 9.77228537 0.95842058 15 4 C15 4.33 15 4.66 15 5 C9.76119922 4.44854729 5.02649303 3.57077907 0 2 C0 1.34 0 0.68 0 0 Z " fill="#231C85" transform="translate(181,107)"/>
<path d="M0 0 C0 0.66 0 1.32 0 2 C-5.36439644 4.68219822 -9.01006953 5.3152595 -15 5 C-14 3 -14 3 -11.6015625 2.1484375 C-10.61929688 1.89320313 -9.63703125 1.63796875 -8.625 1.375 C-7.64789063 1.11460937 -6.67078125 0.85421875 -5.6640625 0.5859375 C-3 0 -3 0 0 0 Z " fill="#1A1282" transform="translate(195,153)"/>
<path d="M0 0 C1.65 0.33 3.3 0.66 5 1 C4.67 2.65 4.34 4.3 4 6 C2.35 5.67 0.7 5.34 -1 5 C-0.67 3.35 -0.34 1.7 0 0 Z " fill="#201880" transform="translate(239,105)"/>
<path d="M0 0 C0.33 1.32 0.66 2.64 1 4 C-0.98 4.99 -0.98 4.99 -3 6 C-3.36980013 10.04622502 -3.36980013 10.04622502 -1 13 C-4.71860179 11.46126823 -5.35633541 10.52488612 -8 7 C-5.36 4.69 -2.72 2.38 0 0 Z " fill="#261F84" transform="translate(237,125)"/>
<path d="M0 0 C0.99 0.33 1.98 0.66 3 1 C0.69 3.31 -1.62 5.62 -4 8 C-4.99 7.67 -5.98 7.34 -7 7 C-4.69 4.69 -2.38 2.38 0 0 Z " fill="#DCDAE8" transform="translate(236,123)"/>
<path d="M0 0 C0.66 0.33 1.32 0.66 2 1 C1.67 1.99 1.34 2.98 1 4 C-2.0625 5.1875 -2.0625 5.1875 -5 6 C-4.75 4.125 -4.75 4.125 -4 2 C-2.0625 0.6875 -2.0625 0.6875 0 0 Z " fill="#E30709" transform="translate(292,253)"/>
<path d="M0 0 C0.66 0 1.32 0 2 0 C1.67 1.65 1.34 3.3 1 5 C-1.31 5 -3.62 5 -6 5 C-6.33 4.34 -6.66 3.68 -7 3 C-4.69 3 -2.38 3 0 3 C0 2.01 0 1.02 0 0 Z " fill="#12097E" transform="translate(244,153)"/>
<path d="M0 0 C0.33 0.66 0.66 1.32 1 2 C1.99 2.33 2.98 2.66 4 3 C1.42786866 4.61949011 0.32330841 5.04408751 -2.75 4.625 C-3.4925 4.41875 -4.235 4.2125 -5 4 C-3.35 2.68 -1.7 1.36 0 0 Z " fill="#E31818" transform="translate(263,269)"/>
<path d="M0 0 C2.9375 0.8125 2.9375 0.8125 6 2 C6.33 2.99 6.66 3.98 7 5 C4.03 4.505 4.03 4.505 1 4 C0.67 2.68 0.34 1.36 0 0 Z " fill="#E30508" transform="translate(141,259)"/>
<path d="M0 0 C0.99 0.66 1.98 1.32 3 2 C1.68 2.99 0.36 3.98 -1 5 C-2.32 4.34 -3.64 3.68 -5 3 C-3.35 2.01 -1.7 1.02 0 0 Z " fill="#1D1380" transform="translate(225,387)"/>
<path d="M0 0 C3.26954202 0.56371414 4.82575883 1.49962266 7 4 C4.69 3.67 2.38 3.34 0 3 C0 2.01 0 1.02 0 0 Z " fill="#1E1681" transform="translate(185,380)"/>
<path d="M0 0 C0.33 0.99 0.66 1.98 1 3 C-0.65 4.65 -2.3 6.3 -4 8 C-4 4 -4 4 -2 1.75 C-1.01 0.88375 -1.01 0.88375 0 0 Z " fill="#1D1581" transform="translate(186,142)"/>
<path d="M0 0 C2.475 0.99 2.475 0.99 5 2 C5 2.99 5 3.98 5 5 C2.525 4.01 2.525 4.01 0 3 C0 2.01 0 1.02 0 0 Z " fill="#251A83" transform="translate(196,386)"/>
<path d="M0 0 C0.99 0 1.98 0 3 0 C3 0.66 3 1.32 3 2 C3.66 2.33 4.32 2.66 5 3 C2 5 2 5 -0.1875 4.625 C-0.785625 4.41875 -1.38375 4.2125 -2 4 C-2 2 -2 2 0 0 Z " fill="#CBC7DC" transform="translate(195,110)"/>
<path d="M0 0 C1.98 0.99 3.96 1.98 6 3 C4.25 4.125 4.25 4.125 2 5 C-0.25 4.125 -0.25 4.125 -2 3 C-1.34 2.67 -0.68 2.34 0 2 C0 1.34 0 0.68 0 0 Z " fill="#E31716" transform="translate(194,288)"/>
</svg>
